<svg width="183" height="80" viewBox="0 0 183 80" fill="none" xmlns="http://www.w3.org/2000/svg">
<path fill-rule="evenodd" clip-rule="evenodd" d="M46.7693 29.521C46.1282 29.8116 45.4208 30.0394 44.6673 30.1985L44.6671 30.1986C42.4001 30.6771 40.4578 30.391 38.8972 29.3491C37.1733 28.1995 36.0072 26.1667 35.4304 23.3073C34.8803 20.5812 34.9118 17.4477 35.5164 14.71C35.8341 13.2696 36.2931 12.0282 36.8795 11.0206C37.5665 9.839 38.4124 9.01487 39.3918 8.57094C39.6679 8.44578 39.956 8.35071 40.2486 8.28914C42.3744 7.84058 44.7474 9.08432 46.9308 11.7894C48.8045 14.1111 50.2672 17.2018 50.8431 20.0575C52.068 26.1297 48.8163 28.5932 46.7693 29.521ZM29.6219 37.2932C30.2473 37.0097 30.8686 36.6353 31.4681 36.1811C33.2718 34.8138 34.3005 33.1819 34.5242 31.3311C34.7717 29.288 34.0067 27.0735 32.2511 24.7483C30.5775 22.5315 28.2297 20.4764 25.8097 19.1095C24.5361 18.3904 23.3205 17.9074 22.1982 17.675C20.8811 17.4025 19.7289 17.4832 18.7733 17.9163C18.5039 18.0384 18.2496 18.1901 18.0166 18.3659C16.3252 19.6476 15.7329 22.2352 16.3474 25.6515C16.8748 28.5833 18.2362 31.7199 19.9896 34.0419C23.7171 38.9798 27.6246 38.1984 29.6217 37.2932L29.6219 37.2932ZM54.5794 33.8104C48.6005 32.3113 42.9234 32.5656 38.5956 34.5272C34.2677 36.4888 30.3345 40.5904 27.5208 46.0748C24.9237 51.1386 23.534 56.8968 23.7079 61.8733C23.8069 64.7046 24.3972 67.1477 25.4613 69.1353C26.6509 71.3571 28.3792 72.9103 30.5975 73.753C32.6778 74.5429 34.5247 74.5486 36.2417 73.7704C38.4793 72.7562 40.1675 70.5297 41.9544 68.1732L41.9544 68.1732L41.9545 68.1731L41.9558 68.1714L41.9558 68.1713C44.0951 65.3497 46.5202 62.1513 50.3326 60.4233C54.1459 58.6949 58.15 58.9794 61.6829 59.2311L61.6857 59.2313L61.6858 59.2313L61.6859 59.2313L61.6859 59.2313C64.6347 59.4408 67.4201 59.6387 69.657 58.6248C71.374 57.8465 72.5871 56.4539 73.3643 54.3688C74.1927 52.1452 74.1639 49.8216 73.2772 47.4625C72.4846 45.3519 71.0356 43.2974 68.9718 41.3572C65.3459 37.9454 60.0993 35.1951 54.5794 33.8104ZM19.9179 51.2353C20.7662 50.8509 21.543 50.266 22.225 49.4969C23.5087 48.0501 24.0981 46.3675 23.9284 44.6314C23.7444 42.7481 22.6981 40.9428 20.8176 39.2668C17.6602 36.4516 12.2974 34.3 9.14031 35.7309C8.63028 35.9621 8.1933 36.2798 7.84186 36.676C6.60235 38.0728 6.49643 40.3244 7.54193 43.0152C8.42541 45.2879 10.0634 47.6342 11.9229 49.2924C15.5248 52.5033 18.4773 51.8885 19.9165 51.2362L19.9178 51.2356L19.9179 51.2353ZM60.8414 12.6537C62.7089 12.6425 64.4726 14.0465 65.8063 16.6067L65.806 16.6066C66.9328 18.7691 67.6186 21.5478 67.6382 24.0391C67.6788 28.8643 65.2704 30.6794 63.8312 31.3317C62.9823 31.7165 62.0304 31.9151 61.0025 31.9211C59.0681 31.9322 57.4142 31.2663 56.2208 29.995C54.9251 28.6155 54.2579 26.6385 54.237 24.1195C54.2021 19.8898 56.1178 14.4382 59.2749 13.0073C59.7849 12.7761 60.3118 12.6569 60.8414 12.6537Z" fill="#BB3D63"/>
<path d="M99.3362 38.192L99.3362 43.424C99.3362 45.824 100.008 46.544 102.792 46.544L106.248 46.544C108.264 46.544 109.008 45.92 109.296 43.64C108.576 43.472 107.448 43.088 106.92 42.704C106.824 44 106.656 44.24 105.936 44.24L103.152 44.24C102.216 44.24 102.048 44.12 102.048 43.424L102.048 41.984L107.808 41.984L107.808 39.896L102.048 39.896L102.048 38.192L99.3362 38.192ZM106.392 37.904C107.256 37.904 108.216 37.856 108.696 37.712C108.6 37.088 108.528 36.152 108.48 35.456C107.952 35.576 106.944 35.624 106.272 35.624L102.768 35.624C102.072 35.624 101.952 35.36 101.952 34.616L101.952 33.584L107.712 33.584L107.712 31.472L101.952 31.472L101.952 29.84L99.3122 29.84L99.3122 34.592C99.3122 36.968 100.008 37.904 102.672 37.904L106.392 37.904ZM99.0482 35.048C98.4242 33.92 97.0562 32.264 95.9522 31.04L93.8162 32C94.1282 32.36 94.4642 32.72 94.7762 33.128L91.4402 33.416C92.4242 32.528 93.4082 31.424 94.2482 30.344L91.5842 29.576C90.6002 31.112 89.1122 32.576 88.6322 32.984C88.1522 33.416 87.7442 33.704 87.3602 33.776C87.6242 34.448 88.0082 35.648 88.1522 36.176C88.8002 35.888 89.8082 35.744 96.2162 35.12C96.4322 35.48 96.6482 35.84 96.7922 36.128L99.0482 35.048ZM89.7842 52.16C90.9122 51.032 92.0162 49.328 92.6882 47.744L89.9042 47C89.2562 48.536 88.1042 50.144 87.0722 51.008L89.7842 52.16ZM94.2242 47.912C94.4402 49.208 94.5362 50.912 94.5122 51.944L97.3202 51.608C97.3202 50.6 97.1042 48.92 96.8402 47.672L94.2242 47.912ZM91.1522 39.896C92.1362 40.352 93.3602 40.976 94.0082 41.408L94.8962 40.184L94.8962 41.24C93.4802 41.72 92.1122 42.176 91.0322 42.488C91.1282 41.696 91.1522 40.928 91.1522 40.232L91.1522 39.896ZM94.8962 38.168L94.8962 39.776C94.1282 39.392 92.9042 38.84 91.9922 38.48L91.1522 39.536L91.1522 38.168L94.8962 38.168ZM97.5362 36.176L88.5842 36.176L88.5842 40.184C88.5842 41.888 88.4882 43.928 87.2402 45.464C87.8162 45.728 88.9442 46.568 89.4002 47C90.1922 46.016 90.6482 44.72 90.8882 43.376L91.4402 44.72C92.5202 44.192 93.6962 43.64 94.8962 43.04L94.8962 44.192C94.8962 44.456 94.8002 44.552 94.5122 44.552C94.2482 44.576 93.3602 44.576 92.5202 44.552C92.8082 45.128 93.1202 45.896 93.2402 46.544C94.6802 46.544 95.7842 46.544 96.5282 46.208C97.2962 45.872 97.5362 45.368 97.5362 44.216L97.5362 36.176ZM98.9282 48.008C99.4082 49.28 99.8882 50.936 100.032 51.968L102.84 51.344C102.672 50.288 102.12 48.68 101.592 47.48L98.9282 48.008ZM103.656 47.912C104.76 49.232 105.936 51.008 106.392 52.16L109.272 51.128C108.72 49.928 107.448 48.224 106.344 47L103.656 47.912ZM130.056 35.096C129.936 40.88 129.744 42.944 129.408 43.472C129.216 43.76 129.048 43.856 128.712 43.856C128.544 43.856 128.28 43.856 127.992 43.832L127.992 36.824L121.512 36.824C121.848 36.272 122.184 35.696 122.52 35.096L130.056 35.096ZM125.352 41.984L122.832 41.984L122.832 39.248L125.352 39.248L125.352 41.984ZM124.584 49.424C123.072 49.424 122.832 49.232 122.832 48.056L122.832 44.432L127.368 44.432C127.584 45.08 127.752 45.824 127.776 46.376C128.76 46.4 129.672 46.4 130.272 46.304C130.92 46.16 131.352 45.92 131.832 45.248C132.456 44.336 132.624 41.456 132.792 33.704C132.792 33.368 132.816 32.552 132.816 32.552L123.672 32.552C123.96 31.784 124.248 30.992 124.464 30.176L121.728 29.6C121.128 31.952 120.072 34.256 118.704 35.96L118.704 34.208L116.856 34.208L116.856 29.696L114.12 29.696L114.12 34.208L111.336 34.208L111.336 36.824L114.12 36.824L114.12 41.144C112.896 41.432 111.768 41.696 110.856 41.888L111.456 44.648L114.12 43.928L114.12 48.848C114.12 49.208 114 49.304 113.712 49.304C113.4 49.328 112.416 49.328 111.48 49.28C111.84 50.072 112.2 51.296 112.272 52.064C113.928 52.064 115.056 51.968 115.848 51.488C116.616 51.056 116.856 50.288 116.856 48.872L116.856 43.16C117.576 42.944 118.296 42.752 118.992 42.536L118.68 39.992L116.856 40.472L116.856 36.824L117.936 36.824L117.72 37.04C118.368 37.448 119.448 38.36 119.928 38.864L120.072 38.696L120.072 48.08C120.072 51.128 121.056 51.944 124.32 51.944L129.504 51.944C132.384 51.944 133.2 50.888 133.56 47.384C132.816 47.24 131.664 46.784 131.016 46.352C130.848 48.92 130.608 49.424 129.264 49.424L124.584 49.424ZM151.392 34.568C150.672 33.512 148.992 32.096 147.696 31.112L145.824 32.744C147.168 33.776 148.728 35.312 149.4 36.344L151.392 34.568ZM150.72 40.856C149.928 39.824 148.152 38.336 146.784 37.376L144.96 39.008C146.352 40.088 148.032 41.624 148.776 42.68L150.72 40.856ZM144.648 42.728C144.192 42.176 142.224 39.92 141.528 39.248L141.528 39.056L144.696 39.056L144.696 36.392L141.528 36.392L141.528 33.104C142.632 32.864 143.688 32.576 144.624 32.216L143.016 29.888C141.024 30.704 138.024 31.424 135.288 31.856C135.6 32.48 135.96 33.416 136.056 34.064C136.944 33.968 137.832 33.824 138.768 33.68L138.768 36.392L135.144 36.392L135.144 39.056L138.384 39.056C137.52 41.384 136.176 43.952 134.832 45.488C135.264 46.208 135.888 47.384 136.152 48.2C137.088 47 137.976 45.296 138.768 43.448L138.768 52.088L141.528 52.088L141.528 42.344C142.104 43.304 142.68 44.312 142.968 44.984L144.648 42.728ZM157.632 45.512L157.176 42.848L154.8 43.256L154.8 29.672L151.992 29.672L151.992 43.736L144.288 45.056L144.744 47.768L151.992 46.52L151.992 52.064L154.8 52.064L154.8 46.016L157.632 45.512ZM167.088 39.872L164.88 40.424L164.88 36.872L167.232 36.872L167.232 34.232L164.88 34.232L164.88 29.696L162.048 29.696L162.048 34.232L159.288 34.232L159.288 36.872L162.048 36.872L162.048 41.12C160.896 41.408 159.864 41.624 158.976 41.816L159.72 44.528L162.048 43.952L162.048 48.896C162.048 49.256 161.928 49.376 161.592 49.376C161.28 49.376 160.296 49.376 159.36 49.352C159.696 50.096 160.056 51.224 160.152 51.944C161.856 51.944 163.008 51.872 163.8 51.44C164.616 50.984 164.88 50.312 164.88 48.92L164.88 43.184C165.744 42.968 166.608 42.728 167.448 42.488L167.088 39.872ZM177.144 41.168C176.424 42.8 175.368 44.24 174.12 45.416C172.92 44.192 171.96 42.752 171.288 41.168L177.144 41.168ZM178.92 38.48L178.416 38.6L175.536 38.6L175.536 35.72L180.912 35.72L180.912 33.08L175.536 33.08L175.536 29.648L172.704 29.648L172.704 33.08L167.544 33.08L167.544 35.72L172.704 35.72L172.704 38.6L167.976 38.6L167.976 41.168L169.224 41.168L168.504 41.384C169.392 43.592 170.52 45.488 171.912 47.096C170.232 48.176 168.288 48.944 166.176 49.448C166.704 50.072 167.376 51.272 167.688 52.04C170.04 51.344 172.152 50.384 174.024 49.088C175.704 50.408 177.672 51.416 180 52.112C180.408 51.368 181.224 50.216 181.824 49.64C179.688 49.112 177.84 48.32 176.256 47.216C178.296 45.2 179.832 42.56 180.744 39.248L178.92 38.48Z" fill="#BB3D63"/>
</svg>
