<svg width="523" height="599" viewBox="0 0 523 599" fill="none" xmlns="http://www.w3.org/2000/svg">
    <g clip-path="url(#clip0_62_502)">
        <g filter="url(#filter0_d_62_502)">
            <path d="M250.781 388.62L187.579 390.313C152.616 371.575 71.209 341.636 44.9046 315.104C7.67664 277.496 -1.92449 245.648 2.07701 219.857C4.30176 205.511 19.9221 201.586 26.3455 204.733C30.1018 206.581 34.003 219.585 34.003 219.585C34.209 219.978 34.776 219.866 34.8219 219.424L36.2883 204.45C36.7261 188.093 52.9474 184.86 57.8619 189.256C61.7651 192.742 61.3297 209.888 61.3297 209.888C61.3617 210.045 61.5823 210.045 61.5976 209.887C61.8535 206.01 64.5548 192.907 67.1711 187.951C70.2731 182.08 84.277 180.319 87.5004 188.203C93.2486 202.273 86.3626 217.673 91.8426 221.454C112.294 235.54 132.406 252.386 153.851 266.911C168.806 277.044 196.434 318.699 220.792 362.871"
                  fill="#BB3D63"/>
        </g>
        <path fill-rule="evenodd" clip-rule="evenodd"
              d="M83.5383 206.368C83.5506 200.175 83.3014 196.016 78.2114 196.016C73.1213 196.001 68.9924 201.04 68.9801 207.233C68.9678 213.425 73.0964 218.455 78.1864 218.471C83.2765 218.486 83.526 212.561 83.5383 206.368ZM62.747 285.803C82.7691 278.476 100.726 250.436 96.6888 239.402L96.6888 239.386C92.6361 228.353 83.6076 223.638 63.6012 230.964C43.5949 238.306 26.5453 253.912 26.9599 265.65C27.4093 278.459 42.7248 293.129 62.747 285.803ZM50.0045 201.382C59.0029 201.496 58.0082 211.017 56.9511 220.79C55.8941 230.563 43.1499 226.931 41.5485 223.768C41.4852 223.644 41.4231 223.524 41.3625 223.406L41.3614 223.404C40.072 220.899 39.4286 219.65 40.8294 210.377C41.2926 207.318 43.7796 201.291 50.0045 201.382ZM29.3515 223.806C27.2958 216.422 22.5802 215.208 16.6894 216.14L16.7052 216.156C8.27849 217.474 6.91918 231.408 9.16387 238.744C11.2654 245.639 21.3997 246.159 25.3312 243.515C29.2626 240.872 32.013 233.41 29.3515 223.806Z"
              fill="#F4DDB5"/>
        <path d="M528.628 604.81C550.181 603.02 565.979 581.405 563.913 556.532C561.847 531.659 542.7 512.946 521.147 514.736C499.593 516.526 483.796 538.141 485.862 563.014C487.928 587.887 507.075 606.6 528.628 604.81Z"
              fill="#BB3D63"/>
        <g filter="url(#filter1_d_62_502)">
            <path fill-rule="evenodd" clip-rule="evenodd"
                  d="M306.604 41.8044C332.255 64.0539 345.698 93.9552 350.748 107.292C396.76 177.696 429.227 240.026 451.308 286.725C485.016 358.002 508.856 423.195 524.131 496.105C545.852 599.752 532.23 632.901 523.348 645.172C528.485 646.035 532.914 646.713 536.869 647.318L536.875 647.319C551.781 649.6 559.942 650.849 573.797 657.07C599.052 670.433 603.154 687.202 608.452 718.921L608.389 718.905C614.988 758.373 596.584 794.325 567.288 799.222C537.992 804.119 522.163 776.057 515.563 736.589C515.355 735.408 515.194 734.227 515.032 733.045C512.854 733.153 509.01 733.505 504.201 733.946L504.199 733.946C488.794 735.358 463.495 737.675 451.361 735.78C414.236 729.976 403.898 708.767 397.275 695.18C396.686 693.972 396.127 692.824 395.581 691.753C393.296 686.797 391.451 681.413 390.094 675.698C376.168 671.943 361.979 669.86 347.549 676.728C340.846 679.916 336.084 684.09 333.1 687.125C345.749 711.037 354.172 739.106 351.114 759.144C345.198 797.783 328.504 841.562 293.93 856.907C243.792 879.138 190.258 868.085 174.341 832.223C158.424 796.361 186.919 772.117 237.041 749.869C240.487 748.346 243.87 746.665 247.174 744.89C228.347 710.787 185.551 620.598 175.873 569.054L175.873 569.022C155.287 506.45 162.354 452.869 167.242 428.067C172.077 406.827 177.157 373.217 170.904 333.701C165.052 296.651 154.329 274.325 142.872 250.468C133.088 230.098 122.769 208.612 114.488 175.892C109.691 156.936 105.995 129.48 111.763 102.464C105.033 95.7874 91.9111 79.2434 106.163 62.4643C118.491 47.9495 130.433 51.973 135.479 54.7607C150.359 38.2565 172.775 24.8325 205.807 17.7826C231.972 12.1957 253.949 14.4662 272.267 21.2314C277.217 9.94161 289.755 -10.2353 310.686 9.61019C322.424 20.7275 314.943 33.2539 306.604 41.8044Z"
                  fill="#BB3D63"/>
        </g>
        <path d="M228.079 95.6181C228.607 98.1534 226.96 100.648 224.409 101.192C221.857 101.72 219.347 100.105 218.819 97.5535C218.595 96.4827 218.765 95.4106 219.219 94.4953L226.495 92.9915C227.505 93.6502 227.823 94.3426 228.095 95.6181L228.079 95.6181Z"
              fill="#231F20"/>
        <path d="M129.139 108.452C129.139 108.452 139.369 104.024 153.563 107.919" stroke="#231F20" stroke-width="1.69"
              stroke-miterlimit="10"/>
        <path d="M149.219 109.556C149.085 112.14 146.854 114.133 144.237 113.999C141.621 113.865 139.629 111.634 139.762 109.049C139.822 107.946 140.26 106.968 140.935 106.209L148.343 106.628C149.15 107.523 149.278 108.279 149.219 109.572L149.219 109.556Z"
              fill="#231F20"/>
        <g filter="url(#filter2_d_62_502)">
            <path d="M229.132 114.12C236.925 111.574 240.794 102.019 237.774 92.7791C234.754 83.5392 225.989 78.1133 218.196 80.6598C210.403 83.2063 206.534 92.7611 209.554 102.001C212.574 111.241 221.339 116.667 229.132 114.12Z"
                  fill="white"/>
        </g>
        <path d="M225.84 106.396C230.924 105.283 234.183 100.439 233.118 95.5761C232.054 90.7134 227.069 87.6735 221.985 88.7864C216.901 89.8992 213.642 94.7434 214.707 99.6061C215.771 104.469 220.756 107.509 225.84 106.396Z"
              fill="#231F20"/>
        <path d="M237.878 94.7053C235.355 89.1508 231.838 82.9848 225.734 81.365C219.884 80.0752 212.989 82.6651 209.523 87.8915C210.752 82.7508 215.974 79.5043 220.998 78.6063C230.432 76.8438 237.347 86.1822 237.878 94.7053Z"
              fill="#3B2314"/>
        <path d="M149.693 125.28C148.105 126.294 147.223 126.501 145.27 126.728C137.456 127.619 130.281 121.039 129.229 112.013C128.177 102.987 133.652 94.9497 141.465 94.0588C147.105 93.411 152.356 94.5608 155.256 99.8305L149.709 125.28L149.693 125.28Z"
              fill="white"/>
        <path d="M129.218 113.589C126.325 105.451 130.137 94.74 139.604 93.6234C142.376 93.1106 145.355 93.4007 147.771 94.7326C135.036 94.0157 129.78 101.69 129.218 113.589V113.589Z"
              fill="#3B2314"/>
        <path d="M299.2 30.4141C299.471 36.4483 293.237 43.8106 287.849 44.0479C287.849 44.0479 286.51 39.3248 279.924 34.555C276.012 28.2484 281.409 20.2584 286.797 20.0211C295.92 19.6147 298.945 24.3798 299.216 30.414L299.2 30.4141Z"
              fill="#F7DAB8"/>
        <path d="M279.74 36.1786C273.514 30.604 277.179 18.1286 285.971 17.7862C294.352 17.1456 301.87 22.6689 299.787 31.6414C297.81 24.3676 293.264 21.7974 286.142 22.2922C280.424 22.8772 277.895 30.6692 279.724 36.1944L279.74 36.1786Z"
              fill="#420126"/>
        <path d="M235.062 86.0948C235.062 86.0948 238.768 87.1863 240.414 84.3291C240.422 86.8187 236.218 88.0766 236.218 88.0766C236.218 88.0766 239.331 90.856 243.1 86.6056C242.07 89.8233 237.884 91.6484 237.884 91.6484C237.884 91.6484 241.262 93.387 244.355 89.8162C242.605 94.6907 238.144 94.1215 238.144 94.1215C238.144 94.1215 236.313 88.0448 235.062 86.0948V86.0948Z"
              fill="#3B2314"/>
        <path d="M129.691 103.55C129.691 103.55 126.452 105.656 124.065 103.394C124.766 105.771 129.163 105.773 129.163 105.773C129.163 105.773 126.983 109.325 122.136 106.346C124.036 109.13 128.592 109.683 128.592 109.683C128.592 109.683 125.858 112.307 121.863 109.782C124.933 113.949 129.056 112.124 129.056 112.124C129.056 112.124 129.068 105.773 129.707 103.55L129.691 103.55Z"
              fill="#3B2314"/>
        <path d="M190.692 215.191C190.692 215.191 192.569 210.616 193.463 209.305C195.628 206.178 198.453 207.477 201.424 205.104C202.524 204.219 205.383 201.058 206.356 200.031C208.964 197.297 212.085 197.539 215.69 196.409C217.894 195.725 219.972 194.915 222.046 193.191C222.046 193.191 197.661 216.398 190.676 215.191L190.692 215.191Z"
              fill="#7C5C3F"/>
        <path d="M194.462 216.393C194.462 216.393 207.638 221.914 217.308 215.172C224.683 210.012 221.255 202.096 221.046 200.884C220.693 198.899 221.046 200.884 221.046 200.884C221.29 203.31 215.827 220.124 194.478 216.393L194.462 216.393Z"
              fill="#7C5C3F"/>
        <path d="M174.512 186.09C174.873 185.506 177.229 178.029 180.234 176.271C183.238 174.513 186.14 175.166 188.307 177.648C188.307 177.648 186.293 178.805 182.118 179.07C179.644 179.235 174.497 186.09 174.497 186.09L174.512 186.09Z"
              fill="#3B2314"/>
        <path d="M201.043 62.0126C201.043 62.0126 205.228 59.5888 215.111 55.5085C228.835 49.8248 249.095 58.3025 249.095 58.3025L248.235 60.4639C248.235 60.4639 231.396 52.4641 216.523 58.3247C211.313 60.3735 207.858 64.2921 207.858 64.2921C206.79 65.556 204.884 65.6564 203.699 64.5256L201.059 62.0126"
              fill="#7C5C3F"/>
        <path d="M143.712 76.5296C143.712 76.5296 140.242 75.7683 132.043 74.1392C129.457 73.6272 125.189 74.5071 122.511 74.9566L122.324 75.3511C125.143 74.8539 127.884 74.5775 130.959 75.1352C135.263 75.9255 139.59 78.8587 139.59 78.8587C141.09 79.7365 142.128 79.229 142.866 78.171L143.696 76.5297"
              fill="#7C5C3F"/>
        <path d="M189.199 155.349L168.491 149.819L134.417 158.859C132.757 167.2 148.158 199.392 173.738 185.446C173.738 185.446 176.175 178.348 180.058 175.389C183.737 172.573 187.957 176.814 187.957 176.814C191.119 174.914 194.738 173.122 192.789 164.635L189.214 155.349L189.199 155.349Z"
              fill="#7C5C3F" stroke="#7C5C3F" stroke-width="1.69" stroke-miterlimit="10"/>
        <path d="M226.841 62.3423C209.218 65.6587 198.107 75.4785 196.729 68.1399C195.351 60.8012 208.514 52.1568 226.153 48.8403C243.777 45.5239 259.199 48.7852 260.577 56.1238C261.955 63.4625 244.48 59.0258 226.857 62.3423L226.841 62.3423Z"
              fill="#420126"/>
        <path d="M138.71 79.5863C127.318 80.0155 119.458 86.4216 119.235 80.4188C119.011 74.4159 128.056 69.2037 139.448 68.7744C150.841 68.3451 160.262 72.8698 160.486 78.8727C160.709 84.8756 150.102 79.157 138.71 79.5863V79.5863Z"
              fill="#420126"/>
        <g filter="url(#filter3_d_62_502)">
            <path d="M245.297 149.55C248.805 178.107 226.666 234.697 191.318 239.046C155.969 243.394 120.8 193.82 117.292 165.278C113.784 136.721 141.807 128.094 177.156 123.761C212.504 119.413 241.789 121.008 245.297 149.565L245.297 149.55Z"
                  fill="#F4DDB5"/>
        </g>
        <path d="M203.122 142.936C205.543 156.086 192.438 183.75 170.736 187.725C149.033 191.716 126.952 170.511 124.548 157.362C122.143 144.212 139.287 138.643 160.99 134.652C182.693 130.662 200.718 129.786 203.122 142.936Z"
              fill="#400127"/>
        <path d="M158.686 111.575C159.432 102.503 153.378 94.6005 145.164 93.9249C136.95 93.2492 129.686 100.056 128.939 109.128C128.193 118.2 134.247 126.103 142.461 126.778C150.675 127.454 157.939 120.647 158.686 111.575Z"
              fill="white"/>
        <path d="M146.214 119.766C150.976 119.286 154.475 115.297 154.028 110.855C153.58 106.413 149.357 103.201 144.594 103.68C139.832 104.159 136.333 108.149 136.78 112.591C137.228 117.033 141.451 120.245 146.214 119.766Z"
              fill="#231F20"/>
        <path d="M163.95 210.184C168.042 213.67 191.444 208.728 207.903 190.682C205.652 196.551 203.24 206.265 194.449 212.107C186.303 217.521 168.044 214.316 163.95 210.184"
              fill="#D73B53"/>
        <path d="M163.95 210.184C168.042 213.67 191.444 208.728 207.903 190.682C205.652 196.551 203.24 206.265 194.449 212.107C186.303 217.521 168.044 214.316 163.95 210.184"
              stroke="black" stroke-miterlimit="10"/>
        <path d="M149.547 189.949C149.547 189.949 152.785 212.756 171.864 211.042C183.348 210.014 206.505 192.105 206.505 192.105"
              stroke="#06020C" stroke-width="1.19" stroke-miterlimit="10" stroke-linecap="round"/>
        <g filter="url(#filter4_d_62_502)">
            <path d="M438.374 470.828C433.785 429.132 421.771 371.434 399.53 333.843C399.53 333.843 399.53 333.827 399.529 333.811C389.177 308.647 348.787 252.33 297.708 245.476C249.514 239.007 211.891 267.33 205.439 295.54C204.397 300.065 202.169 313.324 206.081 329.826C217.754 379.236 202.476 463.271 204.514 500.389C208.322 569.615 258.162 609.09 319.001 602.394C379.84 595.698 445.978 539.727 438.389 470.812L438.374 470.828Z"
                  fill="#F4DDB5"/>
        </g>
        <g filter="url(#filter5_d_62_502)">
            <path d="M426.633 282.642C461.708 271.361 472.41 216.161 483.128 160.788C487.052 140.496 491.866 127.607 489.271 104.026C485.493 69.687 469.893 49.7392 463.806 32.9764C461.088 25.5158 453.556 20.7962 445.664 21.7346C443.679 21.9771 441.821 22.3453 440.136 22.7602C435.176 24.0047 432.055 28.9149 432.969 33.9545L434.588 42.8366C434.637 43.1043 434.306 43.2629 434.116 43.0744L423.444 31.6992C417.67 24.6105 410.11 25.8 404.57 28.228C400.227 30.1324 398.399 35.3065 400.618 39.4911L407.498 52.4066C406.279 50.7873 397.567 41.4544 391.728 38.7938C388.399 37.2756 381.753 38.8247 378.427 43.6095C375.823 47.3521 376.375 52.5031 379.474 55.834C384.881 61.6633 387.516 67.5956 388.469 70.1296C388.771 70.9166 388.789 71.7516 388.524 72.5403C382.216 91.6264 374.281 119.116 368.397 152.902C358.132 211.883 352.227 248.805 373.913 269.774C386.984 282.418 409.064 288.274 426.617 282.642L426.633 282.642Z"
                  fill="#BB3D63"/>
        </g>
        <path fill-rule="evenodd" clip-rule="evenodd"
              d="M442.566 46.9076C444.39 50.5892 449.361 53.0162 454.97 52.4158C462.452 51.6047 461.363 40.7985 457.801 35.4993C454.239 30.2001 446.013 30.2256 442.522 32.5685C439.031 34.9114 439.76 41.2594 442.566 46.9076ZM424.748 53.4391C418.989 56.3879 413.605 52.7804 409.355 44.4421C405.931 37.7401 410.806 34.4947 414.304 34.5311C417.251 34.5535 421.981 35.2637 426.277 43.5545L426.301 43.6004C427.653 46.2193 429.988 50.7441 424.748 53.4391ZM388.179 60.6434C390.094 63.2847 393.726 65.7001 398.051 63.1497C402.377 60.5836 404.493 56.9213 400.099 52.5701C395.704 48.219 391.837 45.9776 387.511 48.5438C383.185 51.1099 384.586 55.6909 388.179 60.6434ZM441.282 56.9503C420.094 59.2693 396.138 73.4464 397.419 85.1187L397.435 85.1186C398.716 96.8067 406.31 106.616 427.498 104.281C448.686 101.946 468.495 97 471.216 85.079C473.937 73.1579 462.47 54.6155 441.282 56.9503Z"
              fill="#F4DDB5"/>
    </g>
    <defs>
        <filter id="filter0_d_62_502" x="-18.7656" y="172.903" width="289.547" height="247.409"
                filterUnits="userSpaceOnUse" color-interpolation-filters="sRGB">
            <feFlood flood-opacity="0" result="BackgroundImageFix"/>
            <feColorMatrix in="SourceAlpha" type="matrix" values="0 0 0 0 0 0 0 0 0 0 0 0 0 0 0 0 0 0 127 0"
                           result="hardAlpha"/>
            <feOffset dy="10"/>
            <feGaussianBlur stdDeviation="10"/>
            <feComposite in2="hardAlpha" operator="out"/>
            <feColorMatrix type="matrix" values="0 0 0 0 0 0 0 0 0 0 0 0 0 0 0 0 0 0 0.2 0"/>
            <feBlend mode="normal" in2="BackgroundImageFix" result="effect1_dropShadow_62_502"/>
            <feBlend mode="normal" in="SourceGraphic" in2="effect1_dropShadow_62_502" result="shape"/>
        </filter>
        <filter id="filter1_d_62_502" x="79.7823" y="-8.76688" width="549.948" height="907.148"
                filterUnits="userSpaceOnUse" color-interpolation-filters="sRGB">
            <feFlood flood-opacity="0" result="BackgroundImageFix"/>
            <feColorMatrix in="SourceAlpha" type="matrix" values="0 0 0 0 0 0 0 0 0 0 0 0 0 0 0 0 0 0 127 0"
                           result="hardAlpha"/>
            <feOffset dy="10"/>
            <feGaussianBlur stdDeviation="10"/>
            <feComposite in2="hardAlpha" operator="out"/>
            <feColorMatrix type="matrix" values="0 0 0 0 0 0 0 0 0 0 0 0 0 0 0 0 0 0 0.2 0"/>
            <feBlend mode="normal" in2="BackgroundImageFix" result="effect1_dropShadow_62_502"/>
            <feBlend mode="normal" in="SourceGraphic" in2="effect1_dropShadow_62_502" result="shape"/>
        </filter>
        <filter id="filter2_d_62_502" x="188.527" y="70.0316" width="70.2731" height="74.7167"
                filterUnits="userSpaceOnUse" color-interpolation-filters="sRGB">
            <feFlood flood-opacity="0" result="BackgroundImageFix"/>
            <feColorMatrix in="SourceAlpha" type="matrix" values="0 0 0 0 0 0 0 0 0 0 0 0 0 0 0 0 0 0 127 0"
                           result="hardAlpha"/>
            <feOffset dy="10"/>
            <feGaussianBlur stdDeviation="10"/>
            <feComposite in2="hardAlpha" operator="out"/>
            <feColorMatrix type="matrix" values="0 0 0 0 0 0 0 0 0 0 0 0 0 0 0 0 0 0 0.2 0"/>
            <feBlend mode="normal" in2="BackgroundImageFix" result="effect1_dropShadow_62_502"/>
            <feBlend mode="normal" in="SourceGraphic" in2="effect1_dropShadow_62_502" result="shape"/>
        </filter>
        <filter id="filter3_d_62_502" x="96.9948" y="111.943" width="168.666" height="157.371"
                filterUnits="userSpaceOnUse" color-interpolation-filters="sRGB">
            <feFlood flood-opacity="0" result="BackgroundImageFix"/>
            <feColorMatrix in="SourceAlpha" type="matrix" values="0 0 0 0 0 0 0 0 0 0 0 0 0 0 0 0 0 0 127 0"
                           result="hardAlpha"/>
            <feOffset dy="10"/>
            <feGaussianBlur stdDeviation="10"/>
            <feComposite in2="hardAlpha" operator="out"/>
            <feColorMatrix type="matrix" values="0 0 0 0 0 0 0 0 0 0 0 0 0 0 0 0 0 0 0.2 0"/>
            <feBlend mode="normal" in2="BackgroundImageFix" result="effect1_dropShadow_62_502"/>
            <feBlend mode="normal" in="SourceGraphic" in2="effect1_dropShadow_62_502" result="shape"/>
        </filter>
        <filter id="filter4_d_62_502" x="183.858" y="234.544" width="275.128" height="398.585"
                filterUnits="userSpaceOnUse" color-interpolation-filters="sRGB">
            <feFlood flood-opacity="0" result="BackgroundImageFix"/>
            <feColorMatrix in="SourceAlpha" type="matrix" values="0 0 0 0 0 0 0 0 0 0 0 0 0 0 0 0 0 0 127 0"
                           result="hardAlpha"/>
            <feOffset dy="10"/>
            <feGaussianBlur stdDeviation="10"/>
            <feComposite in2="hardAlpha" operator="out"/>
            <feColorMatrix type="matrix" values="0 0 0 0 0 0 0 0 0 0 0 0 0 0 0 0 0 0 0.2 0"/>
            <feBlend mode="normal" in2="BackgroundImageFix" result="effect1_dropShadow_62_502"/>
            <feBlend mode="normal" in="SourceGraphic" in2="effect1_dropShadow_62_502" result="shape"/>
        </filter>
        <filter id="filter5_d_62_502" x="339.173" y="11.6162" width="170.833" height="303.172"
                filterUnits="userSpaceOnUse" color-interpolation-filters="sRGB">
            <feFlood flood-opacity="0" result="BackgroundImageFix"/>
            <feColorMatrix in="SourceAlpha" type="matrix" values="0 0 0 0 0 0 0 0 0 0 0 0 0 0 0 0 0 0 127 0"
                           result="hardAlpha"/>
            <feOffset dy="10"/>
            <feGaussianBlur stdDeviation="10"/>
            <feComposite in2="hardAlpha" operator="out"/>
            <feColorMatrix type="matrix" values="0 0 0 0 0 0 0 0 0 0 0 0 0 0 0 0 0 0 0.2 0"/>
            <feBlend mode="normal" in2="BackgroundImageFix" result="effect1_dropShadow_62_502"/>
            <feBlend mode="normal" in="SourceGraphic" in2="effect1_dropShadow_62_502" result="shape"/>
        </filter>
        <clipPath id="clip0_62_502">
            <rect width="607" height="867" fill="white" transform="translate(0.519531 2.1416) rotate(-0.177634)"/>
        </clipPath>
    </defs>
</svg>
