<svg width="12" height="12" viewBox="0 0 12 12" fill="none" xmlns="http://www.w3.org/2000/svg">
<path fill-rule="evenodd" clip-rule="evenodd" d="M6 1.5C3.51472 1.5 1.5 3.51472 1.5 6C1.5 8.48528 3.51472 10.5 6 10.5C8.48528 10.5 10.5 8.48528 10.5 6C10.5 3.51472 8.48528 1.5 6 1.5ZM0.5 6C0.5 2.96243 2.96243 0.5 6 0.5C9.03757 0.5 11.5 2.96243 11.5 6C11.5 9.03757 9.03757 11.5 6 11.5C2.96243 11.5 0.5 9.03757 0.5 6Z" fill="#BB3D63"/>
<path d="M5.44019 6.31004H6.35885C6.2512 5.41423 7.5 5.10928 7.5 4.20712C7.5 3.3939 6.86842 3 6.00718 3C5.38278 3 4.87321 3.26048 4.5 3.63532L5.08134 4.10546C5.311 3.89581 5.5622 3.74968 5.87799 3.74968C6.2512 3.74968 6.48804 3.95299 6.48804 4.27065C6.48804 4.87421 5.26794 5.28717 5.44019 6.31004ZM5.89952 8C6.2799 8 6.55981 7.73316 6.55981 7.39009C6.55981 7.04066 6.2799 6.78018 5.89952 6.78018C5.52632 6.78018 5.24641 7.04066 5.24641 7.39009C5.24641 7.73316 5.52632 8 5.89952 8Z" fill="#BB3D63"/>
</svg>
