<svg width="24" height="24" viewBox="0 0 24 24" fill="none" xmlns="http://www.w3.org/2000/svg">
<path fill-rule="evenodd" clip-rule="evenodd" d="M10.3289 2C9.17412 2 8.14887 2.73896 7.78368 3.83451L7.41958 4.92683H6.40324C4.42645 4.92683 3.29806 7.18362 4.48413 8.76505C4.99036 9.44001 5.264 10.261 5.264 11.1047V17.3659C5.264 19.9252 7.33878 22 9.89815 22H13.8006C16.36 22 18.4347 19.9252 18.4347 17.3659V11.1047C18.4347 10.261 18.7084 9.44001 19.2146 8.76505C20.4007 7.18362 19.2723 4.92683 17.2955 4.92683H16.2792L15.9151 3.83451C15.5499 2.73896 14.5247 2 13.3699 2H10.3289ZM15.7348 6.39024C15.7461 6.39051 15.7574 6.39051 15.7687 6.39024H17.2955C18.0664 6.39024 18.5064 7.27031 18.0439 7.887C17.3477 8.81528 16.9713 9.94432 16.9713 11.1047V17.3659C16.9713 19.117 15.5517 20.5366 13.8006 20.5366H9.89815C8.147 20.5366 6.72742 19.117 6.72742 17.3659V11.1047C6.72742 9.94432 6.35107 8.81528 5.65486 7.887C5.19234 7.2703 5.63237 6.39024 6.40324 6.39024H7.93012C7.94144 6.39051 7.95274 6.39051 7.96401 6.39024H15.7348ZM14.7366 4.92683L14.5268 4.29728C14.3608 3.7993 13.8948 3.46341 13.3699 3.46341H10.3289C9.80401 3.46341 9.33799 3.7993 9.172 4.29728L8.96215 4.92683H14.7366ZM14.5323 10.5366C14.5323 10.1325 14.2047 9.80488 13.8006 9.80488C13.3965 9.80488 13.0689 10.1325 13.0689 10.5366V16.3903C13.0689 16.7944 13.3965 17.122 13.8006 17.122C14.2047 17.122 14.5323 16.7944 14.5323 16.3903V10.5366ZM9.89815 9.80488C10.3023 9.80488 10.6299 10.1325 10.6299 10.5366L10.6299 16.3903C10.6299 16.7944 10.3023 17.122 9.89815 17.122C9.49404 17.122 9.16645 16.7944 9.16645 16.3903L9.16645 10.5366C9.16645 10.1325 9.49404 9.80488 9.89815 9.80488Z" fill="#808080"/>
</svg>
