<svg width="127" height="97" viewBox="0 0 127 97" fill="none" xmlns="http://www.w3.org/2000/svg">
<path fill-rule="evenodd" clip-rule="evenodd" d="M76.1579 8.54627L78.1494 7.55627L78.3718 7.32066L79.8389 7.21672C79.7928 8.56183 79.6605 10.0928 79.429 11.1727L77.7617 11.2333C77.8487 10.7254 77.9218 10.0816 77.9734 9.43059L75.9245 10.4491L77.3276 13.2716C77.7621 14.1455 77.7681 14.6607 77.2301 15.2319C76.685 15.7888 75.7537 16.2517 74.5216 16.8643C74.2078 16.4127 73.6437 15.8891 73.1937 15.5589C74.0532 15.1673 75.0919 14.6689 75.357 14.5192C75.6221 14.3696 75.6724 14.291 75.5798 14.1047L74.1909 11.3109L70.3082 13.241L69.596 11.8083L73.4644 9.88527C72.5485 9.87599 71.5682 9.88089 70.7452 9.91476L71.2996 8.44202C71.958 8.40061 72.781 8.36674 73.5896 8.33998C73.9343 7.7755 74.265 7.11081 74.5241 6.48173L69.1084 9.17396L68.4389 7.82719L75.2873 4.42273L75.6028 4.15871L77.1048 4.4484C76.7083 5.69968 76.104 7.10791 75.3141 8.3225C75.6575 8.33045 75.9509 8.34544 76.2156 8.37467L76.1579 8.54627ZM70.5131 2.00746C70.9845 2.38064 71.5773 2.85427 72.0057 3.24881L76.7051 0.912689L77.4885 2.4887L67.0725 7.66661L68.2264 9.98764C69.3802 12.3087 70.9174 15.94 70.7175 18.8089C70.2742 18.6719 69.2942 18.5337 68.8147 18.5755C68.9854 15.9356 67.5899 12.9127 66.5429 10.8066L64.6128 6.92392L70.0428 4.22456C69.9757 4.16146 69.9084 4.09778 69.841 4.03409C69.5714 3.77929 69.3018 3.52449 69.0504 3.30637L70.5131 2.00746ZM54.2984 17.6976L53.3017 18.6041L52.276 16.5409L53.5798 15.8928L52.8035 14.3311L51.4997 14.9792L50.1607 12.2857L48.6134 13.0549L49.9524 15.7485L48.448 16.4963L49.2243 18.058L50.7287 17.3101L51.9609 19.7888C51.8073 19.9184 51.6569 20.0464 51.5106 20.171C51.117 20.5061 50.7525 20.8164 50.4338 21.0661L51.6182 22.5142L51.719 22.424L51.719 22.4239L51.7194 22.4236C52.0526 22.1253 52.4228 21.7939 52.787 21.4507L54.3611 24.6171C54.4537 24.8033 54.4105 24.8963 54.2386 24.9817C54.0738 25.0815 53.5723 25.3308 53.0423 25.5585C53.4708 25.9173 54.006 26.5268 54.2556 26.9209C55.2083 26.4651 55.7816 26.1087 56.0904 25.6157C56.3849 25.1298 56.3002 24.6359 55.9084 23.8479L54.1065 20.223C54.5008 19.8662 54.888 19.4951 55.2753 19.1239L55.2754 19.1238L54.2984 17.6976ZM54.925 12.8119L52.8046 13.866L53.5667 15.399L55.6871 14.3449L56.4207 15.8207L54.4292 16.8107L55.1699 18.3007L57.1471 17.3178C57.3607 17.7834 57.5599 18.2561 57.7234 18.7288C56.8557 19.5711 56.0167 20.3634 55.3786 20.9129L56.7569 22.0681L56.8386 21.98L56.8387 21.98L56.8389 21.9797L56.839 21.9796C57.2462 21.5407 57.6821 21.0708 58.1056 20.5758C58.2032 21.6708 58.0074 22.7866 57.3607 23.9657C57.8328 24.0527 58.6837 24.2908 59.1412 24.4922C60.7439 21.462 59.7129 18.6332 58.2813 15.7534L55.2828 9.72159L53.7641 10.4766L54.925 12.8119ZM64.5498 15.6033L62.0712 16.8355L61.2877 15.2595L63.3795 14.2196L62.6388 12.7296L60.547 13.7694L59.8134 12.2937L62.0485 11.1826L61.2864 9.6496L59.0513 10.7607L57.8904 8.42532L56.2857 9.22303L62.9308 22.5904L64.5355 21.7927L62.8333 18.3685L65.3119 17.1363L64.5498 15.6033ZM44.3811 26.8981C44.8336 26.1549 45.1717 25.3972 45.3595 24.6249L43.1961 25.7004C43.5886 26.1664 43.9812 26.5608 44.3811 26.8981ZM36.9998 25.5644L37.5411 26.6533L40.4639 25.2003C40.2285 24.8706 40.0075 24.5338 39.7793 24.1827L36.9998 25.5644ZM38.6542 22.3124L38.6542 22.3123C38.5488 22.128 38.4422 21.9418 38.3395 21.7536L35.7463 23.0428L36.2947 24.146L38.9452 22.8284C38.852 22.6582 38.7537 22.4863 38.6544 22.3128L38.6542 22.3124ZM43.5586 20.535L43.0102 19.4318L40.0158 20.9203L40.0159 20.9205L40.0159 20.9205L40.016 20.9206L40.016 20.9206L40.016 20.9206C40.2154 21.2859 40.4149 21.6512 40.6215 21.995L43.5586 20.535ZM41.4557 23.3496C41.6839 23.7006 41.912 24.0517 42.1402 24.367L44.805 23.0423L44.2638 21.9534L41.4556 23.3493L41.4557 23.3496ZM47.2651 23.6776L45.7464 24.4326L47.4209 24.3506C47.139 25.5807 46.5996 26.7601 45.8886 27.8818C46.6892 28.2343 47.4763 28.2361 48.2214 27.8658C48.7658 27.5951 48.7455 27.087 48.0981 25.4612C48.6559 25.6128 49.4071 25.6503 49.9082 25.5799C50.7254 28.0147 50.4445 28.8154 48.9974 29.5348C47.5217 30.2684 46.1123 30.1649 44.7401 29.4534C43.2619 31.2603 41.3262 32.9016 39.2906 34.378C38.8906 34.0766 38.0261 33.5236 37.5257 33.3078C39.7759 31.8318 41.8119 30.1765 43.2685 28.4339C42.6543 27.9173 42.069 27.2791 41.4768 26.555L38.2818 28.1433L38.6735 28.9313L37.0116 29.7575L33.3578 22.4076L37.5701 20.3136C37.3278 19.8623 37.0999 19.4038 36.8649 18.931L38.5841 18.0763C38.8049 18.5562 39.0328 19.0147 39.2607 19.4732L44.003 17.1157L47.2651 23.6776ZM30.018 37.1114C29.187 37.5245 29.0082 37.4883 28.702 36.8723L27.0496 33.5483L27.9462 32.5844L29.6485 36.0086L31.1242 35.275L29.1513 31.3064L29.9978 30.3853C30.5603 31.5887 31.1155 32.8493 31.4283 33.7302L32.8529 33.4329C32.4412 31.9937 31.5659 29.9095 30.854 28.3336L30.7974 28.0759L29.4302 28.3089L29.2145 28.7377L28.3465 29.6874L27.5345 28.0541L26.0588 28.7877L27.1414 30.9654L26.2448 31.9293L25.5112 30.4536L24.0928 31.1587C24.1943 30.5722 24.2601 29.9498 24.2545 29.2915L30.3866 26.2432L29.6245 24.7101L24.2088 27.4024C24.16 26.837 24.0897 26.3002 23.9908 25.7418L22.1365 26.1812C22.5043 28.0353 22.5069 30.0173 22.0526 31.5476L21.2834 30.0002L20.0655 30.6056L18.7265 27.9121L17.1362 28.7026L18.4752 31.3962L16.9135 32.1725L17.697 33.7485L19.2586 32.9722L20.5051 35.4795L20.2253 35.7209C19.7498 36.1314 19.3196 36.5028 18.9349 36.8139L20.1194 38.262C20.2738 38.1199 20.4318 37.9731 20.5938 37.8225L20.5951 37.8213L20.5964 37.8201L20.5965 37.82L20.5975 37.8191L20.5992 37.8175C20.8342 37.5991 21.0778 37.3727 21.3312 37.1414L22.7842 40.0642C22.8768 40.2505 22.848 40.3363 22.676 40.4217C22.5112 40.5215 22.0098 40.7708 21.4869 41.0129C21.9297 41.3645 22.4649 41.974 22.743 42.3896C23.6457 41.9409 24.2548 41.5488 24.5493 41.0629C24.8652 40.5842 24.7805 40.0903 24.3817 39.288L22.6937 35.8924L23.7908 34.8645L22.8138 33.4383L21.8888 34.2734L20.849 32.1816L22.0525 31.5833L21.9876 31.7764C22.4813 31.799 23.4469 31.9801 23.8973 32.1314L23.9075 32.0885L23.9075 32.0884L23.9076 32.0884C23.9627 31.8571 24.0223 31.6069 24.0566 31.3375L25.011 33.2574L23.8202 34.5283L25.0124 35.7403L25.8158 34.8764L27.1761 37.6129C28.0166 39.3035 28.7387 39.5342 30.587 38.6154L33.4095 37.2123C34.8995 36.4716 35.0944 35.7135 34.4261 33.8659C33.9536 33.9936 33.1877 34.0705 32.7371 33.9908C33.2423 35.2227 33.2273 35.516 32.5683 35.8437L30.018 37.1114ZM6.04014 37.1132L3.54718 38.3525L4.48674 37.403C4.07986 36.9799 3.35148 36.3414 2.7658 35.8821L1.53961 37.0098C2.07519 37.4762 2.74642 38.0716 3.14602 38.5519L0.968262 39.6345L1.63776 40.9813L6.70964 38.46L6.04014 37.1132ZM7.58337 41.224L3.28516 43.3607L3.92617 44.6502L8.22437 42.5135L7.58337 41.224ZM7.79572 45.3174L8.61479 46.9651L7.22503 47.6559L6.40597 46.0083L7.79572 45.3174ZM8.60194 43.2371L4.28941 45.3809L6.72524 50.2808L8.1723 49.5615L7.88741 48.9884L10.7529 47.5639L8.60194 43.2371ZM2.97186 42.6945L7.27007 40.5578L6.62906 39.2684L2.33086 41.4051L2.97186 42.6945ZM12.1426 43.7819L11.8437 43.0728L15.5115 41.2495L15.8534 41.9372L12.1426 43.7819ZM14.6284 39.4729L14.9631 40.1463L11.2953 41.9696L10.9606 41.2962L14.6284 39.4729ZM15.5847 37.443L8.8079 40.8118L10.0757 43.3621C10.6312 44.4796 11.2147 45.8691 10.868 47.2923C11.2901 47.3147 12.2125 47.5888 12.6057 47.7686C12.8367 46.8675 12.7603 45.887 12.5191 44.9706L16.4018 43.0404L16.701 43.6422C16.7793 43.7998 16.7505 43.8856 16.5642 43.9782C16.3923 44.0636 15.7906 44.3628 15.2533 44.612C15.6248 44.8919 16.1102 45.3653 16.367 45.7379C17.2767 45.3036 17.9358 44.9402 18.3018 44.4902C18.6964 44.026 18.6402 43.5894 18.2841 42.873L15.5847 37.443ZM12.0654 36.9411L11.752 36.3107L14.5888 34.9005L14.0262 33.7686L11.1894 35.1789L10.9045 34.6058L14.0278 33.0531L13.4224 31.8353L10.2991 33.3879L9.77915 32.342L8.13151 33.1611L8.65144 34.207L5.68568 35.6813L6.29108 36.8992L9.25683 35.4248L9.54173 35.9979L6.93415 37.2942L7.49681 38.426L10.1044 37.1298L10.4178 37.7602L7.2371 39.3413L7.8425 40.5592L15.9804 36.5137L15.375 35.2959L12.0654 36.9411ZM126.414 14.5858L113.686 1.85784C112.905 1.07679 111.639 1.07679 110.858 1.85784C110.077 2.63889 110.077 3.90522 110.858 4.68627L120.713 14.5417C120.268 14.9259 119.995 15.5022 120.02 16.1357C120.042 16.6837 120.282 17.1714 120.653 17.5184L110.858 27.3137C110.077 28.0947 110.077 29.3611 110.858 30.1421C111.639 30.9232 112.905 30.9232 113.686 30.1421L126.414 17.4142C127.195 16.6331 127.195 15.3668 126.414 14.5858ZM116.337 18.541C117.432 18.3982 118.204 17.3946 118.062 16.2993C117.919 15.204 116.915 14.4318 115.82 14.5746C113.845 14.832 111.867 15.1773 109.792 15.613C108.711 15.84 108.019 16.9003 108.246 17.9813C108.472 19.0623 109.533 19.7546 110.614 19.5276C112.603 19.1099 114.479 18.7832 116.337 18.541ZM104.902 20.8804C105.972 20.6039 106.615 19.5129 106.338 18.4435C106.062 17.3741 104.971 16.7312 103.901 17.0076C102.963 17.2501 101.996 17.5078 100.993 17.7809C100.13 18.0159 99.3179 18.1937 98.5199 18.3449C97.4347 18.5506 96.7216 19.5971 96.9273 20.6823C97.1329 21.7676 98.1794 22.4806 99.2647 22.275C100.141 22.1089 101.058 21.9088 102.044 21.6404C103.033 21.371 103.984 21.1178 104.902 20.8804ZM93.985 23.1862C95.0674 22.9661 95.7664 21.9102 95.5462 20.8277C95.3261 19.7453 94.2701 19.0463 93.1877 19.2665C91.5689 19.5958 89.8045 20.0547 87.7217 20.8268C86.686 21.2108 86.1577 22.3616 86.5416 23.3973C86.9256 24.433 88.0764 24.9614 89.1121 24.5774C90.9753 23.8867 92.5381 23.4805 93.985 23.1862ZM84.39 26.6581C85.3772 26.1626 85.7758 24.9606 85.2803 23.9734C84.7848 22.9862 83.5828 22.5876 82.5956 23.0831C81.1289 23.8193 79.5275 24.6913 77.7601 25.7295C76.8077 26.289 76.4892 27.5146 77.0486 28.467C77.6081 29.4194 78.8337 29.7379 79.7861 29.1785C81.4876 28.179 83.0114 27.35 84.39 26.6581ZM75.2771 31.9651C76.2052 31.3662 76.472 30.1283 75.873 29.2002C75.2741 28.2721 74.0362 28.0053 73.1081 28.6043C72.3708 29.0801 71.6087 29.5806 70.8203 30.1072C69.9207 30.708 69.0406 31.3525 68.1823 32.0364C67.3184 32.7247 67.1761 33.983 67.8644 34.8469C68.5527 35.7108 69.811 35.8531 70.6749 35.1648C71.4491 34.5479 72.2389 33.9698 73.0419 33.4335C73.8138 32.918 74.5584 32.429 75.2771 31.9651ZM66.35 39.1823C67.1033 38.3744 67.0591 37.1089 66.2513 36.3555C65.4434 35.6022 64.1779 35.6465 63.4246 36.4543C61.9697 38.0145 60.6035 39.6913 59.3404 41.4583C58.6981 42.3569 58.9059 43.6061 59.8045 44.2484C60.7031 44.8907 61.9522 44.683 62.5946 43.7844C63.7607 42.1529 65.0177 40.6111 66.35 39.1823ZM59.4332 48.8332C59.9618 47.8633 59.604 46.6486 58.6342 46.12C57.6643 45.5914 56.4495 45.9492 55.9209 46.9191C55.4782 47.7315 55.056 48.5562 54.6556 49.3913C52.7916 49.8034 50.9415 50.3001 49.1163 50.8649C48.0611 51.1915 47.4703 52.3116 47.7969 53.3668C48.1234 54.422 49.2435 55.0127 50.2987 54.6862C51.2236 54.4 52.1525 54.133 53.0839 53.8876C53.2145 54.5267 53.6548 55.0895 54.3064 55.348C55.3331 55.7554 56.4956 55.2533 56.903 54.2266C57.634 52.3845 58.4818 50.5789 59.4332 48.8332ZM62.599 52.2117C64.6885 52.0427 66.7595 52.0189 68.796 52.1624C69.8979 52.24 70.854 51.4097 70.9317 50.3079C71.0093 49.2061 70.179 48.2499 69.0772 48.1723C66.8206 48.0132 64.5469 48.0411 62.2766 48.2247C61.1756 48.3137 60.3553 49.2784 60.4443 50.3794C60.5333 51.4804 61.498 52.3007 62.599 52.2117ZM75.8514 49.2609C74.782 48.9843 73.6909 49.6271 73.4144 50.6964C73.1378 51.7658 73.7805 52.8569 74.8499 53.1335C75.8329 53.3877 76.8036 53.6901 77.7601 54.0438C78.5398 54.3321 79.2705 54.64 79.9559 54.9665C80.9532 55.4414 82.1466 55.0181 82.6216 54.0208C83.0965 53.0236 82.6732 51.8301 81.6759 51.3552C80.8756 50.974 80.0334 50.6197 79.1474 50.2921C78.0608 49.8903 76.9612 49.5479 75.8514 49.2609ZM44.3224 56.8109C45.3479 56.4006 45.8467 55.2367 45.4364 54.2111C45.0261 53.1856 43.8621 52.6868 42.8366 53.0971C40.7572 53.929 38.7261 54.8312 36.7608 55.7772C35.7655 56.2563 35.3471 57.4515 35.8262 58.4468C36.3053 59.4421 37.5005 59.8605 38.4957 59.3814C40.3865 58.4712 42.3344 57.6063 44.3224 56.8109ZM86.4086 54.2957C85.5482 53.603 84.2892 53.7388 83.5964 54.5991C82.9037 55.4594 83.0395 56.7184 83.8998 57.4112C85.1311 58.4027 86.1567 59.507 87.0189 60.7236C87.6575 61.6249 88.9058 61.8378 89.8071 61.1991C90.7083 60.5605 90.9212 59.3122 90.2825 58.4109C89.2102 56.8977 87.9316 55.5222 86.4086 54.2957ZM55.0647 59.8781C55.3373 58.8077 54.6905 57.719 53.62 57.4465C52.5496 57.1739 51.4609 57.8208 51.1884 58.8912C50.6507 61.0033 50.2598 63.1392 50.0333 65.2729C49.9168 66.3713 50.7127 67.3562 51.8111 67.4727C52.9095 67.5893 53.8945 66.7934 54.011 65.695C54.2161 63.7625 54.5715 61.8154 55.0647 59.8781ZM32.8298 62.3244C33.7947 61.7867 34.141 60.5687 33.6033 59.6038C33.0656 58.6389 31.8475 58.2927 30.8827 58.8304C29.9026 59.3765 28.9464 59.928 28.0168 60.4806C27.2175 60.9559 26.402 61.4657 25.579 62.0078C24.6566 62.6153 24.4013 63.8557 25.0089 64.7781C25.6164 65.7006 26.8568 65.9559 27.7792 65.3483C28.5509 64.84 29.3144 64.3627 30.061 63.9189C30.9596 63.3846 31.8834 62.8518 32.8298 62.3244ZM92.9147 63.3386C92.5096 62.311 91.3481 61.8064 90.3205 62.2116C89.2929 62.6167 88.7883 63.7782 89.1935 64.8058C89.7487 66.2142 90.1928 67.743 90.5519 69.3979C90.7861 70.4773 91.8511 71.1625 92.9305 70.9283C94.01 70.694 94.6951 69.6291 94.4609 68.5496C94.0658 66.729 93.5645 64.9868 92.9147 63.3386ZM23.4159 68.5125C24.2795 67.8237 24.4212 66.5654 23.7325 65.7018C23.0438 64.8382 21.7854 64.6965 20.9219 65.3852C19.4376 66.569 17.9763 67.8478 16.5912 69.2084C15.8033 69.9824 15.792 71.2487 16.566 72.0367C17.3401 72.8247 18.6063 72.836 19.3943 72.0619C20.6711 70.8077 22.0278 69.6196 23.4159 68.5125ZM53.8672 71.5551C53.7993 70.4526 52.8504 69.614 51.7479 69.682C50.6455 69.7499 49.8068 70.6988 49.8748 71.8013C49.9426 72.9 50.0603 73.9916 50.2308 75.0721C50.4014 76.1531 50.6842 77.2366 51.0597 78.3067C51.4255 79.349 52.5669 79.8974 53.6091 79.5317C54.6514 79.166 55.1998 78.0246 54.8341 76.9823C54.5295 76.1141 54.3108 75.2654 54.1819 74.4486C54.0319 73.4978 53.9275 72.5322 53.8672 71.5551ZM95.3167 73.7857C95.1853 72.689 94.1897 71.9064 93.0929 72.0378C91.9962 72.1693 91.2137 73.1649 91.3451 74.2616C91.442 75.0706 91.5277 75.9004 91.6046 76.7513C91.6919 77.717 91.6823 78.6332 91.5887 79.4992C91.47 80.5973 92.264 81.5838 93.3621 81.7026C94.4603 81.8213 95.4468 81.0273 95.5655 79.9291C95.6886 78.791 95.6985 77.61 95.5884 76.3912C95.5085 75.5077 95.4189 74.6388 95.3167 73.7857ZM15.8508 76.0092C16.5297 75.1379 16.3737 73.8812 15.5024 73.2023C14.6311 72.5234 13.3744 72.6794 12.6955 73.5507C11.4653 75.1296 10.3669 76.7954 9.47001 78.533C8.96339 79.5145 9.34838 80.7209 10.3299 81.2276C11.3114 81.7342 12.5178 81.3492 13.0245 80.3677C13.7903 78.884 14.7471 77.4256 15.8508 76.0092ZM57.318 81.8186C56.6996 80.9034 55.4563 80.6628 54.5411 81.2812C53.6259 81.8997 53.3853 83.1429 54.0037 84.0581C55.1745 85.7909 56.5597 87.4415 58.0948 88.9346C58.8867 89.7047 60.1529 89.6871 60.923 88.8953C61.6931 88.1035 61.6755 86.8372 60.8837 86.0671C59.5396 84.7599 58.3317 83.3189 57.318 81.8186ZM11.3005 85.0799C11.5275 83.9989 10.8352 82.9386 9.75422 82.7115C8.67323 82.4845 7.61288 83.1768 7.38586 84.2578C7.17234 85.2744 7.04001 86.3087 7.00125 87.3566C6.96043 88.4604 7.82215 89.3883 8.92597 89.4291C10.0298 89.4699 10.9577 88.6082 10.9985 87.5044C11.0284 86.6961 11.1308 85.8875 11.3005 85.0799ZM93.2354 86.6758C93.824 85.7411 93.5434 84.5062 92.6087 83.9177C91.674 83.3291 90.4391 83.6097 89.8506 84.5444C88.9027 86.0497 87.6089 87.3488 86.0438 88.4012C85.1272 89.0175 84.8838 90.2603 85.5001 91.1769C86.1165 92.0935 87.3592 92.3369 88.2758 91.7205C90.2592 90.3869 91.963 88.6966 93.2354 86.6758ZM65.224 89.4854C64.2858 88.9024 63.0527 89.1903 62.4696 90.1285C61.8866 91.0667 62.1745 92.2998 63.1127 92.8829C64.9901 94.0495 66.9956 94.9758 69.058 95.5476C70.1224 95.8427 71.2245 95.219 71.5196 94.1546C71.8147 93.0902 71.1911 91.9881 70.1266 91.693C68.4866 91.2383 66.8295 90.4832 65.224 89.4854ZM81.9597 94.5511C83.0266 94.2652 83.6596 93.1684 83.3736 92.1015C83.0876 91.0346 81.9909 90.4016 80.924 90.6876C80.0197 90.93 79.0805 91.1109 78.116 91.2266L77.8242 91.2616L77.5548 91.379C76.7869 91.7138 75.9963 91.9389 75.1883 92.0648C74.0969 92.2349 73.3501 93.2576 73.5202 94.349C73.6903 95.4404 74.713 96.1872 75.8044 96.0171C76.8448 95.8549 77.8735 95.574 78.8779 95.1622C79.9281 95.0239 80.9583 94.8196 81.9597 94.5511Z" fill="#808080"/>
</svg>
