<svg width="24" height="24" viewBox="0 0 24 24" fill="none" xmlns="http://www.w3.org/2000/svg">
<path fill-rule="evenodd" clip-rule="evenodd" d="M15.7791 2.69534C16.7082 1.76872 18.2151 1.76815 19.1449 2.69407L21.3023 4.84248C22.2242 5.76051 22.2338 7.24669 21.3238 8.17643L14.1957 15.4818C13.5848 16.1059 12.747 16.4579 11.8722 16.4578L9.48945 16.4577C8.38189 16.4577 7.49739 15.5383 7.54397 14.4355L7.64627 12.0136C7.68047 11.204 8.01836 10.4367 8.5931 9.86347L15.7791 2.69534ZM18.2273 3.60924C17.8047 3.18836 17.1197 3.18862 16.6974 3.60981L15.2575 5.04586L18.9629 8.73578L20.3945 7.27308C20.8081 6.85047 20.8037 6.17493 20.3847 5.75764L18.2273 3.60924ZM9.51141 10.7779L14.3399 5.96102L18.0564 9.66199L13.2663 14.5785C12.8998 14.953 12.3972 15.1641 11.8723 15.1641L9.4895 15.164C9.12032 15.164 8.82548 14.8575 8.84101 14.4899L8.94331 12.068C8.96383 11.5823 9.16657 11.1219 9.51141 10.7779ZM3.44578 8.74699C3.44578 6.48462 5.2798 4.6506 7.54217 4.6506H11.3976C11.7968 4.6506 12.1205 4.32695 12.1205 3.92771C12.1205 3.52847 11.7968 3.20482 11.3976 3.20482H7.54217C4.48131 3.20482 2 5.68613 2 8.74699V16.4578C2 19.5187 4.48131 22 7.54217 22H15.253C18.3139 22 20.7952 19.5187 20.7952 16.4578V12.6024C20.7952 12.2032 20.4715 11.8795 20.0723 11.8795C19.673 11.8795 19.3494 12.2032 19.3494 12.6024V16.4578C19.3494 18.7202 17.5154 20.5542 15.253 20.5542H7.54217C5.2798 20.5542 3.44578 18.7202 3.44578 16.4578V8.74699Z" fill="#808080"/>
</svg>
