<svg width="146" height="111" viewBox="0 0 146 111" fill="none" xmlns="http://www.w3.org/2000/svg">
<path fill-rule="evenodd" clip-rule="evenodd" d="M0.585754 95.4142L13.3137 108.142C14.0947 108.923 15.3611 108.923 16.1421 108.142C16.9232 107.361 16.9232 106.095 16.1421 105.314L6.5036 95.6752C7.1351 95.3183 7.54956 94.6292 7.51918 93.8545C7.49236 93.1707 7.12532 92.5807 6.58748 92.2409L16.1421 82.6863C16.9232 81.9052 16.9232 80.6389 16.1421 79.8578C15.3611 79.0768 14.0947 79.0768 13.3137 79.8578L0.585754 92.5858C-0.195282 93.3668 -0.195282 94.6331 0.585754 95.4142ZM12.278 91.3604C11.1827 91.5026 10.41 92.506 10.5523 93.6013C10.6945 94.6967 11.6979 95.4693 12.7932 95.3271C15.1144 95.0256 17.4417 94.6211 19.8843 94.1101C20.9655 93.8839 21.6586 92.8241 21.4324 91.7429C21.2063 90.6618 20.1464 89.9687 19.0653 90.1948C16.7081 90.6879 14.4829 91.074 12.278 91.3604ZM24.3897 91.0348C24.6652 92.1044 25.7556 92.7483 26.8253 92.4728C27.9315 92.1879 29.0729 91.885 30.2564 91.564C31.2864 91.2846 32.2545 91.0734 33.2038 90.8941C34.2892 90.6892 35.0029 89.6432 34.798 88.5578C34.593 87.4724 33.547 86.7587 32.4616 86.9636C31.4344 87.1576 30.3614 87.3909 29.2091 87.7035C28.0392 88.0209 26.9146 88.3193 25.8277 88.5992C24.7581 88.8746 24.1143 89.9651 24.3897 91.0348ZM38.6992 85.891C37.6166 86.1102 36.9168 87.1656 37.136 88.2482C37.3553 89.3308 38.4107 90.0306 39.4933 89.8113C41.3889 89.4274 43.4536 88.8927 45.8924 87.9923C46.9287 87.6097 47.4586 86.4596 47.076 85.4234C46.6935 84.3872 45.5433 83.8573 44.5071 84.2398C42.2873 85.0593 40.4236 85.5417 38.6992 85.891ZM50.1214 81.7762C49.1334 82.2701 48.7329 83.4715 49.2268 84.4594C49.7208 85.4474 50.9221 85.8479 51.9101 85.354C53.6348 84.4917 55.5195 83.4694 57.6017 82.2509C58.555 81.6931 58.8756 80.468 58.3177 79.5146C57.7598 78.5613 56.5348 78.2407 55.5814 78.7986C53.5652 79.9785 51.7579 80.958 50.1214 81.7762ZM60.922 75.5104C59.9929 76.1077 59.724 77.3452 60.3214 78.2743C60.9188 79.2034 62.1563 79.4723 63.0853 78.8749C63.9548 78.3158 64.8538 77.7276 65.784 77.1087C66.6269 76.5478 67.4554 75.9542 68.2682 75.3303C69.1444 74.6577 69.3094 73.4021 68.6368 72.526C67.9643 71.6498 66.7087 71.4847 65.8326 72.1573C65.089 72.7281 64.3338 73.2691 63.5681 73.7786C62.6545 74.3865 61.773 74.9632 60.922 75.5104ZM70.0536 68.4782C69.2655 69.2521 69.254 70.5184 70.0279 71.3065C70.8019 72.0947 72.0681 72.1062 72.8562 71.3322C74.2845 69.9297 75.6483 68.4322 76.9387 66.8562C77.6384 66.0016 77.5128 64.7415 76.6582 64.0417C75.8035 63.342 74.5435 63.4676 73.8437 64.3222C72.6414 65.7906 71.3749 67.1807 70.0536 68.4782ZM77.1918 59.7817C76.5812 60.7022 76.8325 61.9433 77.753 62.5539C78.6735 63.1644 79.9146 62.9132 80.5252 61.9927C81.6342 60.3206 82.6666 58.587 83.6137 56.8063C83.9857 56.1069 83.9005 55.2862 83.4628 54.6866C83.8599 54.6079 84.2565 54.5259 84.6525 54.4407C85.7323 54.2082 86.4193 53.1444 86.1868 52.0646C86.154 51.9122 86.1047 51.7677 86.0411 51.6325C86.0966 51.5423 86.1457 51.4465 86.1874 51.3454C86.9592 49.4767 87.6371 47.5733 88.2119 45.6495C88.5281 44.5911 87.9265 43.4768 86.8682 43.1606C85.8098 42.8444 84.6955 43.446 84.3793 44.5043C83.8442 46.2953 83.2119 48.0715 82.4903 49.8185C82.3537 50.1494 82.3123 50.496 82.3537 50.8276C80.8804 51.1117 79.4067 51.3449 77.9368 51.5213C76.8401 51.6529 76.0578 52.6487 76.1894 53.7454C76.321 54.8421 77.3168 55.6244 78.4135 55.4928C78.9036 55.4339 79.3935 55.3693 79.8831 55.299C79.0513 56.8361 78.152 58.334 77.1918 59.7817ZM72.0298 51.9113C70.0503 51.9292 68.0904 51.8272 66.1598 51.5914C65.0633 51.4575 64.066 52.2377 63.932 53.3342C63.7981 54.4306 64.5784 55.428 65.6748 55.5619C67.7909 55.8204 69.9255 55.9305 72.066 55.9111C73.1706 55.9011 74.0578 54.9976 74.0478 53.8931C74.0378 52.7885 73.1343 51.9012 72.0298 51.9113ZM59.3589 54.3126C60.4229 54.6093 61.5259 53.9872 61.8226 52.9232C62.1192 51.8592 61.4971 50.7562 60.4331 50.4596C59.5002 50.1995 58.5768 49.9022 57.6639 49.5659C56.7352 49.2238 55.8636 48.858 55.0451 48.4698C54.0471 47.9965 52.8543 48.4218 52.381 49.4198C51.9077 50.4179 52.333 51.6106 53.331 52.084C54.264 52.5265 55.2466 52.9382 56.2811 53.3193C57.2977 53.6938 58.3242 54.0242 59.3589 54.3126ZM89.6083 49.0365C88.5499 49.3525 87.948 50.4666 88.2639 51.525C88.5798 52.5835 89.694 53.1854 90.7524 52.8694C92.7612 52.2698 94.7479 51.5983 96.7021 50.8702C97.7372 50.4845 98.2636 49.3328 97.878 48.2977C97.4923 47.2627 96.3406 46.7362 95.3056 47.1219C93.4281 47.8214 91.5257 48.4642 89.6083 49.0365ZM47.82 48.676C48.682 49.3667 49.9407 49.2278 50.6314 48.3658C51.322 47.5037 51.1831 46.245 50.3211 45.5544C48.8404 44.3681 47.6062 43.0462 46.5689 41.5902C45.9279 40.6906 44.6791 40.4809 43.7795 41.1219C42.8799 41.7628 42.6702 43.0117 43.3111 43.9113C44.5596 45.6635 46.0475 47.2559 47.82 48.676ZM100.89 44.8513C99.8785 45.2961 99.4194 46.4763 99.8642 47.4874C100.309 48.4984 101.489 48.9575 102.5 48.5127C104.43 47.6637 106.317 46.7706 108.149 45.8496C109.136 45.3536 109.534 44.1514 109.038 43.1645C108.542 42.1775 107.34 41.7796 106.353 42.2756C104.577 43.168 102.753 44.0317 100.89 44.8513ZM111.695 39.4302C110.732 39.9718 110.391 41.1913 110.933 42.154C111.474 43.1166 112.694 43.4579 113.656 42.9163C114.574 42.3999 115.473 41.8801 116.352 41.3594C117.291 40.8037 118.248 40.2074 119.214 39.5735C120.138 38.9676 120.395 37.7277 119.789 36.8041C119.183 35.8806 117.943 35.6232 117.02 36.2291C116.105 36.8295 115.199 37.3933 114.314 37.9178C113.46 38.4238 112.586 38.9288 111.695 39.4302ZM85.6966 39.0381C85.498 40.1247 86.2178 41.1665 87.3043 41.3652C88.3909 41.5639 89.4328 40.8441 89.6314 39.7575C89.999 37.747 90.2474 35.7283 90.3658 33.7175C90.4307 32.6149 89.5895 31.6684 88.4868 31.6034C87.3841 31.5385 86.4376 32.3798 86.3727 33.4825C86.2644 35.3226 86.0364 37.1795 85.6966 39.0381ZM40.2376 38.1868C40.6446 39.2137 41.8069 39.7162 42.8338 39.3092C43.8606 38.9022 44.3632 37.7399 43.9562 36.713C43.2907 35.0339 42.7602 33.2151 42.3322 31.2519C42.0969 30.1727 41.0313 29.4886 39.952 29.7239C38.8728 29.9592 38.1887 31.0248 38.424 32.104C38.8884 34.2338 39.4767 36.2669 40.2376 38.1868ZM122.195 32.4906C121.33 33.1776 121.186 34.4357 121.873 35.3006C122.56 36.1655 123.818 36.3097 124.683 35.6227C126.427 34.2378 128.142 32.7424 129.768 31.1522C130.558 30.3798 130.571 29.1136 129.799 28.324C129.027 27.5344 127.76 27.5204 126.971 28.2928C125.454 29.777 123.843 31.182 122.195 32.4906ZM86.3225 27.9195C86.4109 29.0205 87.3752 29.8413 88.4762 29.7529C89.5773 29.6644 90.3981 28.7001 90.3096 27.5991C90.2273 26.5745 90.107 25.556 89.947 24.5462C89.7971 23.6 89.5723 22.651 89.2823 21.7073C88.9579 20.6515 87.8389 20.0586 86.7831 20.3831C85.7272 20.7075 85.1344 21.8265 85.4588 22.8823C85.6984 23.6618 85.8783 24.4272 85.9963 25.172C86.1397 26.0775 86.2481 26.994 86.3225 27.9195ZM37.4169 25.9684C37.5488 27.065 38.5448 27.8471 39.6415 27.7151C40.7381 27.5832 41.5202 26.5872 41.3882 25.4906C41.2731 24.5338 41.1715 23.5528 41.0803 22.5476C40.975 21.3873 40.9866 20.2844 41.1003 19.2402C41.2199 18.1421 40.4266 17.155 39.3286 17.0354C38.2305 16.9158 37.2434 17.7091 37.1238 18.8072C36.9803 20.125 36.9683 21.4942 37.0967 22.9091C37.1908 23.947 37.2964 24.9672 37.4169 25.9684ZM131.188 23.6148C130.507 24.4847 130.661 25.7417 131.53 26.4225C132.4 27.1032 133.657 26.95 134.338 26.0801C135.781 24.2365 137.067 22.2944 138.116 20.2717C138.624 19.2912 138.242 18.084 137.261 17.5755C136.281 17.067 135.073 17.4497 134.565 18.4303C133.648 20.1988 132.504 21.9335 131.188 23.6148ZM83.5255 18.4427C84.0652 19.4064 85.284 19.7502 86.2477 19.2106C87.2115 18.6709 87.5553 17.4522 87.0156 16.4884C86.1204 14.8895 85.0614 13.3304 83.875 11.8502C83.1841 10.9884 81.9254 10.8497 81.0636 11.5406C80.2017 12.2314 80.063 13.4901 80.7539 14.352C81.8109 15.6707 82.7444 17.0476 83.5255 18.4427ZM136.637 12.7919C136.409 13.8727 137.1 14.9337 138.181 15.1618C139.261 15.3899 140.322 14.6986 140.55 13.6179C140.799 12.4381 140.954 11.239 140.999 10.0249C141.04 8.92107 140.178 7.99303 139.074 7.95206C137.97 7.91109 137.042 8.77268 137.001 9.8765C136.965 10.8497 136.841 11.8221 136.637 12.7919ZM39.833 11.0085C39.2419 11.9416 39.5192 13.1772 40.4523 13.7683C41.3854 14.3593 42.621 14.082 43.2121 13.1489C44.3619 11.3337 45.9281 9.7715 47.8156 8.50914C48.7338 7.8951 48.9803 6.65299 48.3663 5.73483C47.7523 4.81667 46.5102 4.57013 45.592 5.18417C43.2864 6.72607 41.3092 8.67799 39.833 11.0085ZM77.3614 10.7214C78.1742 11.4693 79.4395 11.4165 80.1873 10.6037C80.9352 9.79077 80.8825 8.52554 80.0696 7.77769C78.6919 6.51023 77.2151 5.34655 75.6688 4.32681C74.7467 3.71871 73.5062 3.97327 72.8981 4.89538C72.29 5.81748 72.5445 7.05797 73.4666 7.66607C74.8242 8.56132 76.1327 9.59103 77.3614 10.7214ZM52.9344 1.91104C51.8671 2.19577 51.2328 3.29176 51.5175 4.359C51.8022 5.42625 52.8982 6.06059 53.9655 5.77586C55.0489 5.48681 56.1735 5.27115 57.3275 5.13328L57.6184 5.09853L57.8871 4.98183C58.5868 4.67789 59.3014 4.44868 60.0277 4.28844C61.1063 4.05049 61.7878 2.98318 61.5499 1.90455C61.3119 0.825912 60.2446 0.144417 59.166 0.38237C58.2877 0.576134 57.4196 0.845924 56.5674 1.19709C55.3287 1.35754 54.1142 1.59629 52.9344 1.91104ZM69.161 5.36927C70.1833 5.78757 71.3511 5.29794 71.7694 4.27563C72.1878 3.25333 71.6981 2.08549 70.6758 1.66719C68.8651 0.926308 66.9918 0.40004 65.0984 0.154961C64.003 0.0131683 63 0.786247 62.8582 1.88168C62.7164 2.97711 63.4895 3.98008 64.5849 4.12186C66.0906 4.31676 67.6275 4.7418 69.161 5.36927ZM138.988 72.9156L136.395 74.2048L136.758 74.9355C137.546 74.4722 138.356 73.9803 139.151 73.4956C139.5 71.3927 138.825 69.173 137.651 66.5585L136.347 67.2066L135.791 66.0891L133.04 67.4566L133.318 68.0154L135.854 66.7547L138.055 71.1819L135.519 72.4425L135.797 73.0013L138.39 71.7121L138.988 72.9156ZM132.007 72.0623L132.327 72.707L133.445 72.1515L133.124 71.5068L132.007 72.0623ZM136.109 70.8267L135.789 70.182L134.671 70.7376L134.992 71.3823L136.109 70.8267ZM133.852 69.0899L134.166 69.7203L135.283 69.1648L134.97 68.5344L133.852 69.0899ZM132.305 69.8591L131.187 70.4147L131.501 71.0451L132.618 70.4895L132.305 69.8591ZM137.076 61.1623L137.078 61.1662L137.079 61.1681C137.598 62.2118 138.096 63.2127 138.536 64.1706L141.445 62.7248C141.445 62.7248 141.708 63.2907 141.808 63.4913C144.592 69.4153 145.51 71.5497 145.379 72.4367C145.285 73.0733 145.026 73.3804 144.603 73.7157C144.219 74.0135 143.558 74.3247 142.868 74.65L142.868 74.6501L142.855 74.6562C142.592 74.1976 142.063 73.6025 141.542 73.2722C142.201 73.0161 142.752 72.7598 143.025 72.6244C143.239 72.5176 143.354 72.3891 143.391 72.1387C143.499 71.6023 142.774 69.7831 140.559 65.1127L139.27 65.7537C140.992 69.686 141.8 72.9651 140.34 76.0672C139.955 75.8301 139.304 75.5639 138.775 75.4339C136.819 76.6744 134.862 77.9149 133.379 78.8131L132.466 77.48C133.24 77.0239 134.207 76.4537 135.275 75.8336L134.848 74.974L132.326 76.2275L131.728 75.024L134.249 73.7705L133.972 73.2117L131.507 74.4368L129.306 70.0096L131.771 68.7846L131.493 68.2258L128.671 69.6289L128.058 68.3968L130.881 66.9937L130.596 66.4206C129.793 66.891 128.998 67.3399 128.231 67.7388C128.003 67.4235 127.582 66.9717 127.26 66.7205C129.324 65.5518 131.682 64.0761 133.087 62.9488L134.465 63.8535C133.784 64.3886 132.96 64.9592 132.079 65.5224L132.428 66.2244L135.179 64.857L135.57 65.645L136.917 64.9755C136.461 64.0227 135.97 63.0342 135.443 61.9739L137.076 61.162L137.076 61.1623ZM120.614 78.9052C120.185 78.7253 118.39 78.0629 117.847 77.94L117.64 77.5245L119.173 76.7624L118.383 75.172L116.849 75.9341L115.845 73.914C116.383 73.4501 116.863 72.979 117.28 72.522L115.5 71.7809C114.646 72.8307 113.09 74.1223 111.649 75.1779C112.006 75.4292 112.492 75.9026 112.77 76.2467C113.293 75.8973 113.831 75.505 114.376 75.0912L115.202 76.7532L113.153 77.7717L113.944 79.362L115.763 78.4575C115.924 80.1108 115.891 82.0212 115.552 83.3513C116.037 83.6458 116.745 84.1698 117.144 84.5786C117.347 83.5844 117.386 82.2966 117.296 80.9654L119.853 86.1089L121.5 85.2899L118.723 79.7022C119.323 80.0471 119.945 80.4349 120.302 80.7219L120.614 78.9052ZM126.25 76.4782C126.227 77.1865 126.083 77.866 125.852 78.5166C125.259 78.365 124.508 78.2559 123.857 78.2043L123.857 78.2039C123.943 77.9824 124.029 77.7609 124.101 77.5466L126.25 76.4782ZM122.792 71.2467C122.726 71.8691 122.546 72.4769 122.294 73.0845C121.729 72.9187 121.028 72.8026 120.413 72.751C120.471 72.6152 120.528 72.4794 120.571 72.3507L122.792 71.2467ZM126.649 74.4756L126.376 74.6825L124.571 75.5799C124.629 75.1579 124.673 74.743 124.681 74.328L123.421 74.7043C124.341 73.0678 124.817 71.2228 124.586 69.1758L123.255 69.23L123.018 69.4369L121.098 70.3913C121.178 69.9765 121.222 69.5616 121.244 69.1395L119.433 69.6648C119.365 71.0742 118.796 72.8403 117.404 74.5687C117.854 74.6485 118.641 74.9723 119.048 75.2165C119.287 74.8884 119.492 74.5486 119.687 74.2232L119.752 74.1162C120.324 74.1891 121.003 74.3338 121.532 74.4996C120.915 75.4498 120.104 76.3352 119.165 77.1058C119.63 77.2858 120.344 77.7168 120.709 78.0181C121.505 77.283 122.222 76.4975 122.818 75.6474C122.643 77.0208 122.017 78.6007 120.775 80.1649C121.247 80.2519 121.998 80.5756 122.398 80.8413C122.656 80.4626 122.901 80.0911 123.123 79.7124C123.767 79.7854 124.482 79.9302 125.069 80.1033C124.322 81.2965 123.232 82.3745 121.927 83.3446C122.399 83.5389 123.106 84.0271 123.492 84.3714C126.711 81.7528 128.65 78.6447 127.951 74.3641L126.649 74.4756ZM108.381 86.8981C108.833 86.155 109.171 85.3973 109.359 84.625L107.196 85.7004C107.588 86.1665 107.981 86.5609 108.381 86.8981ZM100.999 85.5645L101.541 86.6534L104.463 85.2004C104.228 84.8707 104.007 84.5339 103.779 84.1828L100.999 85.5645ZM102.654 82.3127C102.548 82.1282 102.442 81.9419 102.339 81.7537L99.7459 83.0429L100.294 84.1461L102.945 82.8284C102.852 82.6582 102.753 82.4863 102.654 82.3127ZM107.558 80.5351L107.01 79.4319L104.015 80.9204L104.016 80.9209L104.016 80.9211C104.215 81.2862 104.415 81.6514 104.621 81.9951L107.558 80.5351ZM105.455 83.3498L105.455 83.3499L105.456 83.35L105.456 83.3501L105.456 83.3502C105.684 83.7011 105.912 84.052 106.14 84.3671L108.805 83.0423L108.263 81.9535L105.455 83.3494L105.455 83.3498ZM111.265 83.6777L109.746 84.4327L111.421 84.3507C111.139 85.5808 110.599 86.7602 109.888 87.8819C110.689 88.2344 111.476 88.2362 112.221 87.8659C112.765 87.5952 112.745 87.0871 112.098 85.4613C112.655 85.6129 113.407 85.6504 113.908 85.58C114.725 88.0148 114.444 88.8155 112.997 89.5349C111.521 90.2685 110.112 90.165 108.74 89.4535C107.262 91.2604 105.326 92.9016 103.29 94.3781C102.89 94.0767 102.026 93.5237 101.525 93.3079C103.776 91.8319 105.812 90.1766 107.268 88.434C106.654 87.9174 106.069 87.2792 105.476 86.5551L102.281 88.1434L102.673 88.9314L101.011 89.7576L97.3574 82.4077L101.57 80.3137C101.327 79.8624 101.1 79.4039 100.864 78.9311L102.584 78.0764C102.804 78.5563 103.032 79.0148 103.26 79.4733L108.003 77.1158L111.265 83.6777ZM94.0176 97.1115C93.1866 97.5246 93.0078 97.4884 92.7016 96.8724L91.0492 93.5484L91.9458 92.5845L93.6481 96.0087L95.1238 95.2751L93.1509 91.3065L93.9974 90.3854C94.5599 91.5888 95.1151 92.8494 95.4279 93.7303L96.8525 93.433C96.4408 91.9938 95.5655 89.9096 94.8536 88.3337L94.797 88.076L93.4298 88.309L93.2141 88.7378L92.3461 89.6875L91.5341 88.0542L90.0584 88.7878L91.141 90.9655L90.2444 91.9294L89.5108 90.4537L88.0924 91.1588C88.1939 90.5723 88.2597 89.9499 88.2541 89.2916L94.3862 86.2433L93.6241 84.7102L88.2084 87.4025C88.1596 86.8371 88.0893 86.3003 87.9904 85.7419L86.1361 86.1813C86.5039 88.0354 86.5065 90.0174 86.0522 91.5476L85.283 90.0003L84.0651 90.6057L82.7261 87.9121L81.1358 88.7027L82.4748 91.3963L80.9131 92.1726L81.6966 93.7486L83.2583 92.9723L84.5047 95.4796L84.2251 95.7208C83.7495 96.1314 83.3193 96.5028 82.9345 96.814L84.119 98.2621L84.2179 98.1709L84.3721 98.0282L84.5959 97.8203C84.8318 97.601 85.0763 97.3738 85.3308 97.1415L86.7838 100.064C86.8764 100.251 86.8476 100.336 86.6756 100.422C86.5108 100.522 86.0094 100.771 85.4865 101.013C85.9293 101.365 86.4645 101.974 86.7426 102.39C87.6453 101.941 88.2544 101.549 88.5489 101.063C88.8648 100.584 88.7801 100.09 88.3813 99.2881L86.6933 95.8925L87.7904 94.8646L86.8134 93.4384L85.8884 94.2735L84.8486 92.1817L86.0521 91.5834L85.9872 91.7765C86.4809 91.7991 87.4465 91.9802 87.8969 92.1315L87.9071 92.0887C87.9622 91.8574 88.0219 91.607 88.0562 91.3376L89.0106 93.2575L87.8198 94.5284L89.012 95.7404L89.8154 94.8765L91.1758 97.613C92.0162 99.3036 92.7383 99.5343 94.5866 98.6155L97.4091 97.2124C98.8991 96.4717 99.094 95.7136 98.4257 93.866C97.9532 93.9937 97.1873 94.0706 96.7367 93.9909C97.2419 95.2228 97.2269 95.5161 96.5679 95.8438L94.0176 97.1115ZM70.0397 97.1133L67.5468 98.3526L68.4863 97.4031C68.0795 96.98 67.3511 96.3415 66.7654 95.8822L65.5392 97.0099C66.0748 97.4762 66.746 98.0717 67.1456 98.552L64.9679 99.6346L65.6374 100.981L70.7092 98.4601L70.0397 97.1133ZM71.583 101.224L67.2848 103.361L67.9258 104.65L72.224 102.514L71.583 101.224ZM71.7953 105.318L72.6144 106.965L71.2246 107.656L70.4056 106.008L71.7953 105.318ZM72.6015 103.237L68.289 105.381L70.7248 110.281L72.1719 109.562L71.887 108.988L74.7525 107.564L72.6015 103.237ZM66.9715 102.695L71.2697 100.558L70.6287 99.2685L66.3305 101.405L66.9715 102.695ZM76.1422 103.782L75.8433 103.073L79.5111 101.25L79.853 101.937L76.1422 103.782ZM78.628 99.473L78.9627 100.146L75.2949 101.97L74.9602 101.296L78.628 99.473ZM79.5843 97.4431L72.8075 100.812L74.0753 103.362C74.6308 104.48 75.2143 105.869 74.8676 107.292C75.2897 107.315 76.2121 107.589 76.6053 107.769C76.8363 106.868 76.7599 105.887 76.5187 104.971L80.4014 103.041L80.7006 103.642C80.7789 103.8 80.7501 103.886 80.5638 103.978C80.3919 104.064 79.7902 104.363 79.2529 104.612C79.6244 104.892 80.1098 105.365 80.3666 105.738C81.2763 105.304 81.9354 104.94 82.3014 104.49C82.696 104.026 82.6398 103.59 82.2837 102.873L79.5843 97.4431ZM76.065 96.9412L75.7516 96.3108L78.5884 94.9006L78.0258 93.7687L75.189 95.179L74.9041 94.6059L78.0274 93.0532L77.422 91.8354L74.2987 93.388L73.7788 92.3421L72.1311 93.1612L72.651 94.2071L69.6853 95.6814L70.2907 96.8992L73.2564 95.4249L73.5413 95.998L70.9338 97.2943L71.4964 98.4261L74.104 97.1299L74.4174 97.7603L71.2367 99.3414L71.8421 100.559L79.98 96.5138L79.3746 95.296L76.065 96.9412Z" fill="#808080"/>
</svg>
