<svg width="24" height="24" viewBox="0 0 24 24" fill="none" xmlns="http://www.w3.org/2000/svg">
<path fill-rule="evenodd" clip-rule="evenodd" d="M20.5929 3.40715C18.7167 1.53095 15.6747 1.53095 13.7985 3.40715L11.8002 5.40548C11.4691 5.73657 11.4691 6.27338 11.8002 6.60448C12.1313 6.93557 12.6681 6.93557 12.9992 6.60448L14.9975 4.60615C16.2115 3.39213 18.1798 3.39214 19.3939 4.60615C20.6079 5.82016 20.6079 7.78846 19.3939 9.00247L15.3972 12.9991C14.1832 14.2131 12.2149 14.2131 11.0009 12.9991C10.6698 12.668 10.133 12.668 9.80187 12.9991C9.47078 13.3302 9.47078 13.867 9.80187 14.1981C11.6781 16.0743 14.72 16.0743 16.5962 14.1981L20.5929 10.2015C22.469 8.32527 22.469 5.28335 20.5929 3.40715ZM3.40718 20.5927C5.28338 22.4689 8.32529 22.4689 10.2015 20.5927L12.1998 18.5943C12.5309 18.2632 12.5309 17.7264 12.1998 17.3953C11.8687 17.0642 11.3319 17.0642 11.0008 17.3953L9.0025 19.3937C7.78849 20.6077 5.82019 20.6077 4.60618 19.3937C3.39217 18.1796 3.39217 16.2113 4.60618 14.9973L8.60283 11.0007C9.81685 9.78667 11.7851 9.78667 12.9992 11.0007C13.3303 11.3318 13.8671 11.3318 14.1982 11.0007C14.5292 10.6696 14.5292 10.1328 14.1982 9.80168C12.322 7.92548 9.28004 7.92548 7.40384 9.80168L3.40718 13.7983C1.53098 15.6745 1.53098 18.7165 3.40718 20.5927Z" fill="#808080"/>
</svg>
