<svg width="120" height="120" viewBox="0 0 120 120" fill="none" xmlns="http://www.w3.org/2000/svg">
<g filter="url(#filter0_b_5_359)">
<path d="M4 41.0287C4 34.024 4 30.5216 5.07778 27.7357C6.70336 23.5338 10.0252 20.212 14.227 18.5865C17.0129 17.5087 20.5153 17.5087 27.52 17.5087H92.48C99.4848 17.5087 102.987 17.5087 105.773 18.5865C109.975 20.212 113.297 23.5338 114.922 27.7357C116 30.5216 116 34.024 116 41.0287V75.5087H4V41.0287Z" fill="url(#paint0_linear_5_359)"/>
</g>
<g filter="url(#filter1_b_5_359)">
<rect x="20" width="24" height="32" rx="12" fill="#FFB7B5" fill-opacity="0.6"/>
<rect x="20.3059" y="0.305948" width="23.3881" height="31.3881" rx="11.6941" stroke="url(#paint1_linear_5_359)" stroke-width="0.611895"/>
</g>
<g filter="url(#filter2_b_5_359)">
<rect x="76.0001" width="24" height="32" rx="12" fill="#FFB7B5" fill-opacity="0.6"/>
<rect x="76.3061" y="0.305948" width="23.3881" height="31.3881" rx="11.6941" stroke="url(#paint2_linear_5_359)" stroke-width="0.611895"/>
</g>
<g filter="url(#filter3_b_5_359)">
<path d="M4 61.2884C4 53.8368 4 50.1109 5.45019 47.2648C6.72581 44.7612 8.76125 42.7258 11.2648 41.4502C14.111 40 17.8368 40 25.2884 40H94.7116C102.163 40 105.889 40 108.735 41.4502C111.239 42.7258 113.274 44.7612 114.55 47.2648C116 50.1109 116 53.8368 116 61.2884V88.0674C116 99.2448 116 104.834 113.825 109.103C111.911 112.858 108.858 115.911 105.103 117.825C100.834 120 95.2449 120 84.0674 120H35.9326C24.7552 120 19.1664 120 14.8972 117.825C11.1419 115.911 8.08871 112.858 6.17528 109.103C4 104.834 4 99.2448 4 88.0674V61.2884Z" fill="#FFB7B5" fill-opacity="0.6"/>
<path d="M4.30595 61.2884C4.30595 57.5575 4.30619 54.7778 4.48621 52.5744C4.66593 50.3747 5.02333 48.7764 5.72279 47.4037C6.96908 44.9577 8.95772 42.9691 11.4037 41.7228C12.7765 41.0233 14.3747 40.6659 16.5745 40.4862C18.7778 40.3062 21.5576 40.3059 25.2884 40.3059H94.7116C98.4425 40.3059 101.222 40.3062 103.426 40.4862C105.625 40.6659 107.224 41.0233 108.596 41.7228C111.042 42.9691 113.031 44.9577 114.277 47.4037C114.977 48.7764 115.334 50.3747 115.514 52.5744C115.694 54.7778 115.694 57.5575 115.694 61.2884V88.0674C115.694 93.6611 115.694 97.8381 115.423 101.151C115.153 104.46 114.614 106.88 113.552 108.964C111.668 112.662 108.662 115.668 104.964 117.552C102.88 118.614 100.46 119.153 97.1508 119.423C93.8381 119.694 89.6612 119.694 84.0674 119.694H35.9326C30.3389 119.694 26.1619 119.694 22.8492 119.423C19.5401 119.153 17.1204 118.614 15.0361 117.552C11.3383 115.668 8.33198 112.662 6.44788 108.964C5.38588 106.88 4.84721 104.46 4.57684 101.151C4.30619 97.8381 4.30595 93.6611 4.30595 88.0674V61.2884Z" stroke="url(#paint3_linear_5_359)" stroke-width="0.611895"/>
</g>
<g filter="url(#filter4_b_5_359)">
<rect x="83.9999" y="63.9999" width="8" height="48" rx="4" transform="rotate(90 83.9999 63.9999)" fill="url(#paint4_linear_5_359)" fill-opacity="0.9"/>
<rect x="83.7551" y="64.2447" width="7.51049" height="47.5105" rx="3.75524" transform="rotate(90 83.7551 64.2447)" stroke="url(#paint5_linear_5_359)" stroke-width="0.489516"/>
</g>
<g filter="url(#filter5_b_5_359)">
<rect x="83.9999" y="88" width="8" height="48" rx="4" transform="rotate(90 83.9999 88)" fill="url(#paint6_linear_5_359)" fill-opacity="0.9"/>
<rect x="83.7551" y="88.2447" width="7.51049" height="47.5105" rx="3.75524" transform="rotate(90 83.7551 88.2447)" stroke="url(#paint7_linear_5_359)" stroke-width="0.489516"/>
</g>
<defs>
<filter id="filter0_b_5_359" x="-9.30527" y="4.20342" width="138.611" height="84.6105" filterUnits="userSpaceOnUse" color-interpolation-filters="sRGB">
<feFlood flood-opacity="0" result="BackgroundImageFix"/>
<feGaussianBlur in="BackgroundImageFix" stdDeviation="6.65263"/>
<feComposite in2="SourceAlpha" operator="in" result="effect1_backgroundBlur_5_359"/>
<feBlend mode="normal" in="SourceGraphic" in2="effect1_backgroundBlur_5_359" result="shape"/>
</filter>
<filter id="filter1_b_5_359" x="6.69473" y="-13.3053" width="50.6105" height="58.6105" filterUnits="userSpaceOnUse" color-interpolation-filters="sRGB">
<feFlood flood-opacity="0" result="BackgroundImageFix"/>
<feGaussianBlur in="BackgroundImageFix" stdDeviation="6.65263"/>
<feComposite in2="SourceAlpha" operator="in" result="effect1_backgroundBlur_5_359"/>
<feBlend mode="normal" in="SourceGraphic" in2="effect1_backgroundBlur_5_359" result="shape"/>
</filter>
<filter id="filter2_b_5_359" x="62.6949" y="-13.3053" width="50.6105" height="58.6105" filterUnits="userSpaceOnUse" color-interpolation-filters="sRGB">
<feFlood flood-opacity="0" result="BackgroundImageFix"/>
<feGaussianBlur in="BackgroundImageFix" stdDeviation="6.65263"/>
<feComposite in2="SourceAlpha" operator="in" result="effect1_backgroundBlur_5_359"/>
<feBlend mode="normal" in="SourceGraphic" in2="effect1_backgroundBlur_5_359" result="shape"/>
</filter>
<filter id="filter3_b_5_359" x="-9.30527" y="26.6947" width="138.611" height="106.611" filterUnits="userSpaceOnUse" color-interpolation-filters="sRGB">
<feFlood flood-opacity="0" result="BackgroundImageFix"/>
<feGaussianBlur in="BackgroundImageFix" stdDeviation="6.65263"/>
<feComposite in2="SourceAlpha" operator="in" result="effect1_backgroundBlur_5_359"/>
<feBlend mode="normal" in="SourceGraphic" in2="effect1_backgroundBlur_5_359" result="shape"/>
</filter>
<filter id="filter4_b_5_359" x="22.6946" y="50.6947" width="74.6105" height="34.6105" filterUnits="userSpaceOnUse" color-interpolation-filters="sRGB">
<feFlood flood-opacity="0" result="BackgroundImageFix"/>
<feGaussianBlur in="BackgroundImageFix" stdDeviation="6.65263"/>
<feComposite in2="SourceAlpha" operator="in" result="effect1_backgroundBlur_5_359"/>
<feBlend mode="normal" in="SourceGraphic" in2="effect1_backgroundBlur_5_359" result="shape"/>
</filter>
<filter id="filter5_b_5_359" x="22.6946" y="74.6947" width="74.6105" height="34.6105" filterUnits="userSpaceOnUse" color-interpolation-filters="sRGB">
<feFlood flood-opacity="0" result="BackgroundImageFix"/>
<feGaussianBlur in="BackgroundImageFix" stdDeviation="6.65263"/>
<feComposite in2="SourceAlpha" operator="in" result="effect1_backgroundBlur_5_359"/>
<feBlend mode="normal" in="SourceGraphic" in2="effect1_backgroundBlur_5_359" result="shape"/>
</filter>
<linearGradient id="paint0_linear_5_359" x1="-7.69864" y1="46.5517" x2="27.0578" y2="80.1701" gradientUnits="userSpaceOnUse">
<stop stop-color="#FF6161"/>
<stop offset="1" stop-color="#F52828"/>
</linearGradient>
<linearGradient id="paint1_linear_5_359" x1="18.8" y1="2.28571" x2="43.8071" y2="30.9303" gradientUnits="userSpaceOnUse">
<stop stop-color="white"/>
<stop offset="0.765625" stop-color="white" stop-opacity="0"/>
</linearGradient>
<linearGradient id="paint2_linear_5_359" x1="74.8001" y1="2.28571" x2="99.8073" y2="30.9303" gradientUnits="userSpaceOnUse">
<stop stop-color="white"/>
<stop offset="0.765625" stop-color="white" stop-opacity="0"/>
</linearGradient>
<linearGradient id="paint3_linear_5_359" x1="-1.6" y1="45.7143" x2="46.8255" y2="149.257" gradientUnits="userSpaceOnUse">
<stop stop-color="white"/>
<stop offset="0.765625" stop-color="white" stop-opacity="0"/>
</linearGradient>
<linearGradient id="paint4_linear_5_359" x1="97.9972" y1="58.3345" x2="87.6957" y2="103.956" gradientUnits="userSpaceOnUse">
<stop stop-color="white" stop-opacity="0"/>
<stop offset="0.979167" stop-color="white"/>
</linearGradient>
<linearGradient id="paint5_linear_5_359" x1="87.9999" y1="63.9999" x2="87.9999" y2="112" gradientUnits="userSpaceOnUse">
<stop stop-color="white" stop-opacity="0"/>
<stop offset="1" stop-color="white"/>
</linearGradient>
<linearGradient id="paint6_linear_5_359" x1="94.6002" y1="87.4853" x2="87.242" y2="125.748" gradientUnits="userSpaceOnUse">
<stop stop-color="white" stop-opacity="0"/>
<stop offset="0.979167" stop-color="white"/>
</linearGradient>
<linearGradient id="paint7_linear_5_359" x1="87.9999" y1="88" x2="87.9999" y2="136" gradientUnits="userSpaceOnUse">
<stop stop-color="white" stop-opacity="0"/>
<stop offset="1" stop-color="white"/>
</linearGradient>
</defs>
</svg>
