<svg width="120" height="120" viewBox="0 0 120 120" fill="none" xmlns="http://www.w3.org/2000/svg">
<path fill-rule="evenodd" clip-rule="evenodd" d="M17.1428 2C20.6932 2 23.5714 4.87818 23.5714 8.42859L23.5714 111.286C23.5714 114.836 20.6932 117.715 17.1428 117.715C13.5924 117.715 10.7142 114.836 10.7142 111.286L10.7142 8.42859C10.7142 4.87818 13.5924 2 17.1428 2Z" fill="url(#paint0_linear_5_381)"/>
<path fill-rule="evenodd" clip-rule="evenodd" d="M60.0002 2.00003C63.5507 2.00003 66.4288 4.87821 66.4288 8.42862L66.4288 111.286C66.4288 114.836 63.5507 117.715 60.0002 117.715C56.4498 117.715 53.5717 114.836 53.5717 111.286L53.5717 8.42862C53.5717 4.87821 56.4498 2.00003 60.0002 2.00003Z" fill="url(#paint1_linear_5_381)"/>
<path fill-rule="evenodd" clip-rule="evenodd" d="M102.857 2C106.407 2 109.286 4.87818 109.286 8.42859L109.286 111.286C109.286 114.836 106.407 117.715 102.857 117.715C99.3066 117.715 96.4285 114.836 96.4285 111.286L96.4285 8.42859C96.4285 4.87818 99.3066 2 102.857 2Z" fill="url(#paint2_linear_5_381)"/>
<g filter="url(#filter0_b_5_381)">
<circle cx="17.1429" cy="85.5716" r="17.1429" transform="rotate(90 17.1429 85.5716)" fill="#BFB5FF" fill-opacity="0.6"/>
<circle cx="17.1429" cy="85.5716" r="16.8352" transform="rotate(90 17.1429 85.5716)" stroke="url(#paint3_linear_5_381)" stroke-width="0.615382"/>
</g>
<g filter="url(#filter1_b_5_381)">
<circle cx="60.0004" cy="34.143" r="17.1429" transform="rotate(90 60.0004 34.143)" fill="#BFB5FF" fill-opacity="0.6"/>
<circle cx="60.0004" cy="34.143" r="16.8352" transform="rotate(90 60.0004 34.143)" stroke="url(#paint4_linear_5_381)" stroke-width="0.615382"/>
</g>
<g filter="url(#filter2_b_5_381)">
<circle cx="102.857" cy="85.5716" r="17.1429" transform="rotate(90 102.857 85.5716)" fill="#BFB5FF" fill-opacity="0.6"/>
<circle cx="102.857" cy="85.5716" r="16.8352" transform="rotate(90 102.857 85.5716)" stroke="url(#paint5_linear_5_381)" stroke-width="0.615382"/>
</g>
<defs>
<filter id="filter0_b_5_381" x="-12.3076" y="56.1211" width="58.901" height="58.9011" filterUnits="userSpaceOnUse" color-interpolation-filters="sRGB">
<feFlood flood-opacity="0" result="BackgroundImageFix"/>
<feGaussianBlur in="BackgroundImageFix" stdDeviation="6.15382"/>
<feComposite in2="SourceAlpha" operator="in" result="effect1_backgroundBlur_5_381"/>
<feBlend mode="normal" in="SourceGraphic" in2="effect1_backgroundBlur_5_381" result="shape"/>
</filter>
<filter id="filter1_b_5_381" x="30.5499" y="4.69242" width="58.901" height="58.9011" filterUnits="userSpaceOnUse" color-interpolation-filters="sRGB">
<feFlood flood-opacity="0" result="BackgroundImageFix"/>
<feGaussianBlur in="BackgroundImageFix" stdDeviation="6.15382"/>
<feComposite in2="SourceAlpha" operator="in" result="effect1_backgroundBlur_5_381"/>
<feBlend mode="normal" in="SourceGraphic" in2="effect1_backgroundBlur_5_381" result="shape"/>
</filter>
<filter id="filter2_b_5_381" x="73.4066" y="56.1211" width="58.901" height="58.9011" filterUnits="userSpaceOnUse" color-interpolation-filters="sRGB">
<feFlood flood-opacity="0" result="BackgroundImageFix"/>
<feGaussianBlur in="BackgroundImageFix" stdDeviation="6.15382"/>
<feComposite in2="SourceAlpha" operator="in" result="effect1_backgroundBlur_5_381"/>
<feBlend mode="normal" in="SourceGraphic" in2="effect1_backgroundBlur_5_381" result="shape"/>
</filter>
<linearGradient id="paint0_linear_5_381" x1="20.7589" y1="35.3792" x2="-8.28827" y2="44.7643" gradientUnits="userSpaceOnUse">
<stop stop-color="#917FFB"/>
<stop offset="1" stop-color="#3F2DAF"/>
</linearGradient>
<linearGradient id="paint1_linear_5_381" x1="63.6163" y1="35.3792" x2="34.5691" y2="44.7644" gradientUnits="userSpaceOnUse">
<stop stop-color="#917FFB"/>
<stop offset="1" stop-color="#3F2DAF"/>
</linearGradient>
<linearGradient id="paint2_linear_5_381" x1="106.473" y1="35.3792" x2="77.426" y2="44.7643" gradientUnits="userSpaceOnUse">
<stop stop-color="#917FFB"/>
<stop offset="1" stop-color="#3F2DAF"/>
</linearGradient>
<linearGradient id="paint3_linear_5_381" x1="-4.28576" y1="111.286" x2="30" y2="72.7144" gradientUnits="userSpaceOnUse">
<stop stop-color="white"/>
<stop offset="1" stop-color="white" stop-opacity="0"/>
</linearGradient>
<linearGradient id="paint4_linear_5_381" x1="38.5718" y1="59.8573" x2="72.8576" y2="21.2858" gradientUnits="userSpaceOnUse">
<stop stop-color="white"/>
<stop offset="1" stop-color="white" stop-opacity="0"/>
</linearGradient>
<linearGradient id="paint5_linear_5_381" x1="81.4285" y1="111.286" x2="115.714" y2="72.7144" gradientUnits="userSpaceOnUse">
<stop stop-color="white"/>
<stop offset="1" stop-color="white" stop-opacity="0"/>
</linearGradient>
</defs>
</svg>
