<svg width="120" height="120" viewBox="0 0 120 120" fill="none" xmlns="http://www.w3.org/2000/svg">
<path d="M11.352 57.1813C12.8125 49.6703 13.5427 45.9148 15.7444 43.2773C16.808 42.0031 18.0998 40.9383 19.5535 40.1375C22.5628 38.4797 26.3886 38.4797 34.0403 38.4797L85.8212 38.4797C93.4728 38.4797 97.2986 38.4797 100.308 40.1375C101.762 40.9383 103.053 42.0031 104.117 43.2773C106.319 45.9148 107.049 49.6703 108.509 57.1813C110.582 67.8418 111.619 73.1721 109.674 77.1798C108.746 79.0926 107.375 80.7562 105.674 82.0323C102.111 84.706 96.6814 84.706 85.8212 84.706H34.0403C23.1801 84.706 17.7499 84.706 14.1871 82.0323C12.4866 80.7562 11.1154 79.0926 10.1873 77.1798C8.24271 73.1721 9.27915 67.8418 11.352 57.1813Z" fill="url(#paint0_linear_5_53)"/>
<g filter="url(#filter0_b_5_53)">
<circle cx="60.5944" cy="29.1826" r="29.1826" fill="#BFB5FF" fill-opacity="0.6"/>
<circle cx="60.5944" cy="29.1826" r="28.8766" stroke="url(#paint1_linear_5_53)" stroke-width="0.611895"/>
</g>
<g filter="url(#filter1_b_5_53)">
<path d="M12.0508 96.0224C12.0508 98.9877 12.0508 100.47 12.2019 101.716C13.3531 111.213 20.8376 118.698 30.3343 119.849C31.5805 120 33.0631 120 36.0283 120L83.9834 120C86.9487 120 88.4313 120 89.6774 119.849C99.1741 118.698 106.659 111.213 107.81 101.716C107.961 100.47 107.961 98.9877 107.961 96.0224C107.961 92.0688 107.961 90.0919 107.76 88.4304C106.225 75.7682 96.2452 65.7888 83.5829 64.2538C81.9214 64.0524 79.9415 64.0524 75.9815 64.0524C64.5882 64.0524 55.4236 64.0524 44.0303 64.0524C40.0703 64.0524 38.0904 64.0524 36.4288 64.2538C23.7666 65.7888 13.7872 75.7682 12.2522 88.4304C12.0508 90.0919 12.0508 92.0688 12.0508 96.0224Z" fill="#BFB5FF" fill-opacity="0.6"/>
<path d="M12.3567 96.0224C12.3567 98.9966 12.3573 100.456 12.5056 101.68C13.6399 111.037 21.0142 118.411 30.3711 119.545C31.5943 119.693 33.0541 119.694 36.0283 119.694L83.9834 119.694C86.9576 119.694 88.4175 119.693 89.6406 119.545C98.9975 118.411 106.372 111.037 107.506 101.68C107.654 100.456 107.655 98.9967 107.655 96.0224C107.655 92.0598 107.654 90.1058 107.456 88.4673C105.938 75.9448 96.0686 66.0756 83.5461 64.5575C81.9076 64.3589 79.9504 64.3583 75.9815 64.3583L75.9148 64.3583L75.8481 64.3583L75.7815 64.3583L75.7149 64.3583L75.6484 64.3583L75.5819 64.3583L75.5155 64.3583L75.4491 64.3583L75.3827 64.3583L75.3165 64.3583L75.2502 64.3583L75.184 64.3583L75.1179 64.3583L75.0518 64.3583L74.9858 64.3583L74.9198 64.3583L74.8538 64.3583L74.788 64.3583L74.7221 64.3583L74.6563 64.3583L74.5906 64.3583L74.5248 64.3583L74.4592 64.3583L74.3936 64.3583L74.328 64.3583L74.2625 64.3583L74.197 64.3583L74.1316 64.3583L74.0662 64.3583L74.0008 64.3583L73.9356 64.3583L73.8703 64.3583L73.8051 64.3583L73.7399 64.3583L73.6748 64.3583L73.6098 64.3583L73.5447 64.3583L73.4797 64.3583L73.4148 64.3583L73.3499 64.3583L73.285 64.3583L73.2202 64.3583L73.1555 64.3583L73.0907 64.3583L73.026 64.3583L72.9614 64.3583L72.8968 64.3583L72.8322 64.3583L72.7677 64.3583L72.7032 64.3583L72.6388 64.3583L72.5744 64.3583L72.5101 64.3583L72.4457 64.3583L72.3815 64.3583L72.3172 64.3583L72.2531 64.3583L72.1889 64.3583L72.1248 64.3583L72.0607 64.3583L71.9967 64.3583L71.9327 64.3583L71.8687 64.3583L71.8048 64.3583L71.7409 64.3583L71.6771 64.3583L71.6133 64.3583L71.5495 64.3583L71.4858 64.3583L71.4221 64.3583L71.3584 64.3583L71.2948 64.3583L71.2312 64.3583L71.1677 64.3583L71.1042 64.3583L71.0407 64.3583L70.9772 64.3583L70.9138 64.3583L70.8505 64.3583L70.7871 64.3583L70.7238 64.3583L70.6606 64.3583L70.5974 64.3583L70.5342 64.3583L70.471 64.3583L70.4079 64.3583L70.3448 64.3583L70.2817 64.3583L70.2187 64.3583L70.1557 64.3583L70.0928 64.3583L70.0298 64.3583L69.9669 64.3583L69.9041 64.3583L69.8413 64.3583L69.7785 64.3583L69.7157 64.3583L69.653 64.3583L69.5903 64.3583L69.5276 64.3583L69.465 64.3583L69.4024 64.3583L69.3398 64.3583L69.2772 64.3583L69.2147 64.3583L69.1522 64.3583L69.0898 64.3583L69.0273 64.3583L68.965 64.3583L68.9026 64.3583L68.8403 64.3583L68.7779 64.3583L68.7157 64.3583L68.6534 64.3583L68.5912 64.3583L68.529 64.3583L68.4668 64.3583L68.4047 64.3583L68.3426 64.3583L68.2805 64.3583L68.2184 64.3583L68.1564 64.3583L68.0944 64.3583L68.0324 64.3583L67.9705 64.3583L67.9085 64.3583L67.8466 64.3583L67.7848 64.3583L67.7229 64.3583L67.6611 64.3583L67.5993 64.3583L67.5375 64.3583L67.4758 64.3583L67.4141 64.3583L67.3524 64.3583L67.2907 64.3583L67.229 64.3583L67.1674 64.3583L67.1058 64.3583L67.0442 64.3583L66.9827 64.3583L66.9211 64.3583L66.8596 64.3583L66.7981 64.3583L66.7367 64.3583L66.6752 64.3583L66.6138 64.3583L66.5524 64.3583L66.491 64.3583L66.4297 64.3583L66.3683 64.3583L66.307 64.3583L66.2457 64.3583L66.1844 64.3583L66.1232 64.3583L66.0619 64.3583L66.0007 64.3583L65.9395 64.3583L65.8784 64.3583L65.8172 64.3583L65.7561 64.3583L65.6949 64.3583L65.6338 64.3583L65.5728 64.3583L65.5117 64.3583L65.4507 64.3583L65.3896 64.3583L65.3286 64.3583L65.2676 64.3583L65.2067 64.3583L65.1457 64.3583L65.0848 64.3583L65.0238 64.3583L64.9629 64.3583L64.902 64.3583L64.8412 64.3583L64.7803 64.3583L64.7195 64.3583L64.6586 64.3583L64.5978 64.3583L64.537 64.3583L64.4763 64.3583L64.4155 64.3583L64.3547 64.3583L64.294 64.3583L64.2333 64.3583L64.1726 64.3583L64.1119 64.3583L64.0512 64.3583L63.9905 64.3583L63.9299 64.3583L63.8692 64.3583L63.8086 64.3583L63.748 64.3583L63.6874 64.3583L63.6268 64.3583L63.5662 64.3583L63.5056 64.3583L63.4451 64.3583L63.3845 64.3583L63.324 64.3583L63.2635 64.3583L63.2029 64.3583L63.1424 64.3583L63.0819 64.3583L63.0215 64.3583L62.961 64.3583L62.9005 64.3583L62.8401 64.3583L62.7796 64.3583L62.7192 64.3583L62.6588 64.3583L62.5984 64.3583L62.5379 64.3583L62.4775 64.3583L62.4172 64.3583L62.3568 64.3583L62.2964 64.3583L62.236 64.3583L62.1757 64.3583L62.1153 64.3583L62.055 64.3583L61.9946 64.3583L61.9343 64.3583L61.874 64.3583L61.8136 64.3583L61.7533 64.3583L61.693 64.3583L61.6327 64.3583L61.5724 64.3583L61.5121 64.3583L61.4518 64.3583L61.3916 64.3583L61.3313 64.3583L61.271 64.3583L61.2107 64.3583L61.1505 64.3583L61.0902 64.3583L61.0299 64.3583L60.9697 64.3583L60.9094 64.3583L60.8492 64.3583L60.7889 64.3583L60.7287 64.3583L60.6685 64.3583L60.6082 64.3583L60.548 64.3583L60.4877 64.3583L60.4275 64.3583L60.3673 64.3583L60.307 64.3583L60.2468 64.3583L60.1866 64.3583L60.1264 64.3583L60.0661 64.3583L60.0059 64.3583L59.9457 64.3583L59.8854 64.3583L59.8252 64.3583L59.765 64.3583L59.7047 64.3583L59.6445 64.3583L59.5843 64.3583L59.524 64.3583L59.4638 64.3583L59.4036 64.3583L59.3433 64.3583L59.2831 64.3583L59.2229 64.3583L59.1626 64.3583L59.1024 64.3583L59.0421 64.3583L58.9819 64.3583L58.9216 64.3583L58.8613 64.3583L58.8011 64.3583L58.7408 64.3583L58.6805 64.3583L58.6202 64.3583L58.56 64.3583L58.4997 64.3583L58.4394 64.3583L58.3791 64.3583L58.3188 64.3583L58.2585 64.3583L58.1981 64.3583L58.1378 64.3583L58.0775 64.3583L58.0172 64.3583L57.9568 64.3583L57.8965 64.3583L57.8361 64.3583L57.7758 64.3583L57.7154 64.3583L57.655 64.3583L57.5946 64.3583L57.5342 64.3583L57.4738 64.3583L57.4134 64.3583L57.353 64.3583L57.2926 64.3583L57.2322 64.3583L57.1717 64.3583L57.1113 64.3583L57.0508 64.3583L56.9903 64.3583L56.9298 64.3583L56.8694 64.3583L56.8088 64.3583L56.7483 64.3583L56.6878 64.3583L56.6273 64.3583L56.5667 64.3583L56.5062 64.3583L56.4456 64.3583L56.385 64.3583L56.3244 64.3583L56.2638 64.3583L56.2032 64.3583L56.1426 64.3583L56.0819 64.3583L56.0213 64.3583L55.9606 64.3583L55.8999 64.3583L55.8392 64.3583L55.7785 64.3583L55.7178 64.3583L55.6571 64.3583L55.5963 64.3583L55.5355 64.3583L55.4748 64.3583L55.414 64.3583L55.3532 64.3583L55.2923 64.3583L55.2315 64.3583L55.1706 64.3583L55.1097 64.3583L55.0489 64.3583L54.988 64.3583L54.927 64.3583L54.8661 64.3583L54.8051 64.3583L54.7442 64.3583L54.6832 64.3583L54.6222 64.3583L54.5611 64.3583L54.5001 64.3583L54.439 64.3583L54.3779 64.3583L54.3168 64.3583L54.2557 64.3583L54.1946 64.3583L54.1334 64.3583L54.0723 64.3583L54.0111 64.3583L53.9499 64.3583L53.8886 64.3583L53.8274 64.3583L53.7661 64.3583L53.7048 64.3583L53.6435 64.3583L53.5821 64.3583L53.5208 64.3583L53.4594 64.3583L53.398 64.3583L53.3366 64.3583L53.2751 64.3583L53.2137 64.3583L53.1522 64.3583L53.0907 64.3583L53.0291 64.3583L52.9676 64.3583L52.906 64.3583L52.8444 64.3583L52.7828 64.3583L52.7211 64.3583L52.6594 64.3583L52.5977 64.3583L52.536 64.3583L52.4743 64.3583L52.4125 64.3583L52.3507 64.3583L52.2889 64.3583L52.227 64.3583L52.1651 64.3583L52.1032 64.3583L52.0413 64.3583L51.9794 64.3583L51.9174 64.3583L51.8554 64.3583L51.7934 64.3583L51.7313 64.3583L51.6692 64.3583L51.6071 64.3583L51.545 64.3583L51.4828 64.3583L51.4206 64.3583L51.3584 64.3583L51.2961 64.3583L51.2338 64.3583L51.1715 64.3583L51.1092 64.3583L51.0468 64.3583L50.9844 64.3583L50.922 64.3583L50.8596 64.3583L50.7971 64.3583L50.7346 64.3583L50.672 64.3583L50.6094 64.3583L50.5468 64.3583L50.4842 64.3583L50.4215 64.3583L50.3588 64.3583L50.2961 64.3583L50.2333 64.3583L50.1705 64.3583L50.1077 64.3583L50.0448 64.3583L49.982 64.3583L49.919 64.3583L49.8561 64.3583L49.7931 64.3583L49.7301 64.3583L49.667 64.3583L49.6039 64.3583L49.5408 64.3583L49.4776 64.3583L49.4144 64.3583L49.3512 64.3583L49.2879 64.3583L49.2246 64.3583L49.1613 64.3583L49.098 64.3583L49.0345 64.3583L48.9711 64.3583L48.9076 64.3583L48.8441 64.3583L48.7806 64.3583L48.717 64.3583L48.6534 64.3583L48.5897 64.3583L48.526 64.3583L48.4623 64.3583L48.3985 64.3583L48.3347 64.3583L48.2709 64.3583L48.207 64.3583L48.1431 64.3583L48.0791 64.3583L48.0151 64.3583L47.9511 64.3583L47.887 64.3583L47.8229 64.3583L47.7587 64.3583L47.6945 64.3583L47.6303 64.3583L47.566 64.3583L47.5017 64.3583L47.4374 64.3583L47.373 64.3583L47.3085 64.3583L47.2441 64.3583L47.1795 64.3583L47.115 64.3583L47.0504 64.3583L46.9857 64.3583L46.9211 64.3583L46.8563 64.3583L46.7916 64.3583L46.7267 64.3583L46.6619 64.3583L46.597 64.3583L46.5321 64.3583L46.4671 64.3583L46.402 64.3583L46.337 64.3583L46.2718 64.3583L46.2067 64.3583L46.1415 64.3583L46.0762 64.3583L46.0109 64.3583L45.9456 64.3583L45.8802 64.3583L45.8148 64.3583L45.7493 64.3583L45.6838 64.3583L45.6182 64.3583L45.5526 64.3583L45.4869 64.3583L45.4212 64.3583L45.3555 64.3583L45.2897 64.3583L45.2238 64.3583L45.1579 64.3583L45.092 64.3583L45.026 64.3583L44.96 64.3583L44.8939 64.3583L44.8277 64.3583L44.7616 64.3583L44.6953 64.3583L44.629 64.3583L44.5627 64.3583L44.4963 64.3583L44.4299 64.3583L44.3634 64.3583L44.2969 64.3583L44.2303 64.3583L44.1637 64.3583L44.097 64.3583L44.0303 64.3583C40.0614 64.3583 38.1042 64.3589 36.4657 64.5575C23.9432 66.0756 14.074 75.9448 12.5559 88.4672C12.3573 90.1058 12.3567 92.0598 12.3567 96.0224Z" stroke="url(#paint2_linear_5_53)" stroke-width="0.611895"/>
</g>
<defs>
<filter id="filter0_b_5_53" x="18.7634" y="-12.6485" width="83.662" height="83.662" filterUnits="userSpaceOnUse" color-interpolation-filters="sRGB">
<feFlood flood-opacity="0" result="BackgroundImageFix"/>
<feGaussianBlur in="BackgroundImageFix" stdDeviation="6.32423"/>
<feComposite in2="SourceAlpha" operator="in" result="effect1_backgroundBlur_5_53"/>
<feBlend mode="normal" in="SourceGraphic" in2="effect1_backgroundBlur_5_53" result="shape"/>
</filter>
<filter id="filter1_b_5_53" x="-1.80585" y="50.1957" width="123.623" height="83.6609" filterUnits="userSpaceOnUse" color-interpolation-filters="sRGB">
<feFlood flood-opacity="0" result="BackgroundImageFix"/>
<feGaussianBlur in="BackgroundImageFix" stdDeviation="6.92831"/>
<feComposite in2="SourceAlpha" operator="in" result="effect1_backgroundBlur_5_53"/>
<feBlend mode="normal" in="SourceGraphic" in2="effect1_backgroundBlur_5_53" result="shape"/>
</filter>
<linearGradient id="paint0_linear_5_53" x1="37.1139" y1="48.5917" x2="93.4131" y2="93.767" gradientUnits="userSpaceOnUse">
<stop stop-color="#917FFB"/>
<stop offset="1" stop-color="#3F2DAF"/>
</linearGradient>
<linearGradient id="paint1_linear_5_53" x1="31.4119" y1="10.9435" x2="59.4545" y2="57" gradientUnits="userSpaceOnUse">
<stop stop-color="white"/>
<stop offset="0.99715" stop-color="white" stop-opacity="0"/>
</linearGradient>
<linearGradient id="paint2_linear_5_53" x1="16.5473" y1="69.0268" x2="111.119" y2="112.737" gradientUnits="userSpaceOnUse">
<stop stop-color="white"/>
<stop offset="1" stop-color="white" stop-opacity="0"/>
</linearGradient>
</defs>
</svg>
