<svg width="120" height="120" viewBox="0 0 120 120" fill="none" xmlns="http://www.w3.org/2000/svg">
<path d="M61.0493 89.0636C68.4193 86.3302 99.0442 72.0356 100.389 22.8655C100.446 20.7881 99.3617 18.8248 97.5972 17.7269C74.2508 3.20022 44.6787 3.20022 21.3322 17.7269C19.5677 18.8248 18.4839 20.7881 18.5407 22.8655C19.8853 72.0357 50.5102 86.3302 57.8802 89.0636C58.9169 89.4481 60.0126 89.4481 61.0493 89.0636Z" fill="url(#paint0_linear_5_353)"/>
<g filter="url(#filter0_b_5_353)">
<path d="M22.8269 32.5115L14.7673 37.117C12.8499 38.2126 11.6541 40.2864 11.7197 42.4938C13.3094 96.0214 50.1623 110.978 58.0054 113.56C58.9727 113.878 59.9566 113.878 60.9239 113.56C68.767 110.978 105.62 96.0214 107.21 42.4938C107.275 40.2864 106.079 38.2126 104.162 37.117L96.1024 32.5115C73.3998 19.5386 45.5295 19.5386 22.8269 32.5115Z" fill="#6A84E0" fill-opacity="0.6"/>
<path d="M14.9191 37.3826L22.9787 32.7772C45.5872 19.858 73.3421 19.858 95.9506 32.7772L104.01 37.3826C105.832 38.4238 106.966 40.3935 106.904 42.4847C106.111 69.1716 96.5317 86.2203 86.1918 96.919C75.8457 107.624 64.7217 111.988 60.8283 113.269C59.9231 113.567 59.0062 113.567 58.101 113.269C54.2076 111.988 43.0837 107.624 32.7375 96.919C22.3976 86.2203 12.818 69.1716 12.0255 42.4847C11.9634 40.3935 13.0971 38.4238 14.9191 37.3826Z" stroke="url(#paint1_linear_5_353)" stroke-width="0.611895"/>
</g>
<path d="M55.8773 72.7891C55.9728 72.8846 56.1278 72.8846 56.2234 72.7891L76.5012 52.5113C78.4055 50.6069 81.4931 50.6069 83.3975 52.5113C85.3019 54.4157 85.3019 57.5033 83.3975 59.4076L59.4985 83.3067C58.584 84.2212 57.3436 84.7349 56.0503 84.7349C54.757 84.7349 53.5167 84.2212 52.6021 83.3067L38.9456 69.6501C37.0412 67.7457 37.0412 64.6581 38.9456 62.7537C40.8499 60.8494 43.9375 60.8494 45.8419 62.7537L55.8773 72.7891Z" fill="url(#paint2_linear_5_353)" fill-opacity="0.9" stroke="url(#paint3_linear_5_353)" stroke-width="0.489516" stroke-linecap="round" stroke-linejoin="round"/>
<defs>
<filter id="filter0_b_5_353" x="-0.590536" y="10.4742" width="120.11" height="115.632" filterUnits="userSpaceOnUse" color-interpolation-filters="sRGB">
<feFlood flood-opacity="0" result="BackgroundImageFix"/>
<feGaussianBlur in="BackgroundImageFix" stdDeviation="6.15382"/>
<feComposite in2="SourceAlpha" operator="in" result="effect1_backgroundBlur_5_353"/>
<feBlend mode="normal" in="SourceGraphic" in2="effect1_backgroundBlur_5_353" result="shape"/>
</filter>
<linearGradient id="paint0_linear_5_353" x1="36.7186" y1="27.9691" x2="125.757" y2="94.9804" gradientUnits="userSpaceOnUse">
<stop stop-color="#B5C2EE"/>
<stop offset="1" stop-color="#6A84E0"/>
</linearGradient>
<linearGradient id="paint1_linear_5_353" x1="13.5101" y1="33.3024" x2="132.022" y2="120.698" gradientUnits="userSpaceOnUse">
<stop stop-color="white"/>
<stop offset="0.734375" stop-color="white" stop-opacity="0"/>
</linearGradient>
<linearGradient id="paint2_linear_5_353" x1="44.7421" y1="63.8555" x2="119.428" y2="72.682" gradientUnits="userSpaceOnUse">
<stop stop-color="white"/>
<stop offset="1" stop-color="white" stop-opacity="0"/>
</linearGradient>
<linearGradient id="paint3_linear_5_353" x1="38.6314" y1="55.708" x2="69.1847" y2="65.8924" gradientUnits="userSpaceOnUse">
<stop stop-color="white"/>
<stop offset="1" stop-color="white" stop-opacity="0"/>
</linearGradient>
</defs>
</svg>
