<svg width="21" height="21" viewBox="0 0 21 21" fill="none" xmlns="http://www.w3.org/2000/svg">
<path fill-rule="evenodd" clip-rule="evenodd" d="M11.6904 8.19919C11.5301 8.27182 11.3533 8.32877 11.165 8.36853L11.1649 8.36856C10.5982 8.48816 10.1128 8.41665 9.72267 8.15621C9.29176 7.86886 9.0003 7.36076 8.85612 6.64601C8.71861 5.96461 8.72648 5.18137 8.8776 4.49704C8.95702 4.137 9.07175 3.82673 9.21831 3.57487C9.39006 3.27951 9.60148 3.07351 9.84629 2.96255C9.91532 2.93126 9.98733 2.9075 10.0605 2.89211C10.5918 2.77999 11.185 3.09087 11.7307 3.76703C12.1991 4.34735 12.5647 5.11989 12.7086 5.8337C13.0148 7.3515 12.202 7.96728 11.6904 8.19919ZM7.40422 10.1419C7.56057 10.071 7.71584 9.97745 7.86571 9.86392C8.31655 9.52217 8.57368 9.11426 8.62961 8.65164C8.69147 8.14095 8.50024 7.5874 8.06142 7.00621C7.6431 6.45209 7.05625 5.93841 6.45135 5.59675C6.13299 5.417 5.82914 5.29626 5.54863 5.23817C5.21941 5.17008 4.9314 5.19024 4.69255 5.2985C4.62521 5.32902 4.56162 5.36692 4.50339 5.41087C4.0806 5.73124 3.93257 6.37804 4.08616 7.23197C4.218 7.9648 4.55829 8.74882 4.99656 9.32922C5.92829 10.5635 6.905 10.3682 7.40417 10.1419L7.40422 10.1419ZM13.6426 9.27135C12.1481 8.89663 10.7291 8.9602 9.64727 9.45052C8.56549 9.94084 7.58235 10.9661 6.87906 12.3369C6.22989 13.6027 5.88251 15.042 5.92597 16.2859C5.95072 16.9936 6.09827 17.6043 6.36425 18.1011C6.6616 18.6564 7.09361 19.0447 7.64808 19.2553C8.16808 19.4528 8.62972 19.4542 9.0589 19.2597C9.61822 19.0061 10.0402 18.4496 10.4868 17.8606L10.4869 17.8606L10.4872 17.8601L10.4872 17.8601C11.0219 17.1549 11.6281 16.3554 12.581 15.9235C13.5342 15.4914 14.5351 15.5625 15.4181 15.6255L15.4188 15.6255L15.4188 15.6255C16.1559 15.6779 16.8522 15.7273 17.4113 15.4739C17.8405 15.2794 18.1437 14.9313 18.338 14.4101C18.5451 13.8543 18.5379 13.2735 18.3162 12.6838C18.1181 12.1562 17.7559 11.6427 17.2401 11.1577C16.3337 10.3049 15.0223 9.61746 13.6426 9.27135ZM4.97864 13.6269C5.19067 13.5308 5.38484 13.3846 5.55531 13.1923C5.87619 12.8307 6.02352 12.4101 5.98111 11.9762C5.93511 11.5054 5.67358 11.0542 5.20353 10.6352C4.4143 9.93156 3.07383 9.39373 2.2847 9.75141C2.15721 9.80919 2.04798 9.8886 1.96014 9.98762C1.65031 10.3368 1.62384 10.8996 1.88517 11.5722C2.106 12.1402 2.51543 12.7267 2.98023 13.1412C3.88055 13.9438 4.61855 13.7901 4.97828 13.6271L4.97862 13.6269L4.97864 13.6269ZM15.2078 3.98307C15.6746 3.98025 16.1154 4.33121 16.4488 4.97115L16.4487 4.97113C16.7304 5.51165 16.9018 6.20622 16.9067 6.82894C16.9168 8.03503 16.3148 8.48873 15.9551 8.65177C15.7429 8.74795 15.505 8.7976 15.2481 8.79909C14.7645 8.80187 14.3511 8.63544 14.0528 8.31765C13.729 7.97284 13.5622 7.47868 13.557 6.84902C13.5482 5.79177 14.0271 4.42911 14.8162 4.07144C14.9437 4.01366 15.0754 3.98387 15.2078 3.98307Z" fill="#BB3D63"/>
</svg>
