<svg width="12" height="12" viewBox="0 0 12 12" fill="none" xmlns="http://www.w3.org/2000/svg">
<g clip-path="url(#clip0_134_3495)">
<path fill-rule="evenodd" clip-rule="evenodd" d="M1.5 6C1.5 3.51472 3.51472 1.5 6 1.5C8.48528 1.5 10.5 3.51472 10.5 6C10.5 8.48528 8.48528 10.5 6 10.5C3.51472 10.5 1.5 8.48528 1.5 6ZM6 0.5C2.96243 0.5 0.5 2.96243 0.5 6C0.5 9.03757 2.96243 11.5 6 11.5C9.03757 11.5 11.5 9.03757 11.5 6C11.5 2.96243 9.03757 0.5 6 0.5ZM3.70003 6.6C3.92025 6.43484 4.23237 6.47881 4.39846 6.69792L4.40078 6.70088C4.40376 6.70464 4.40941 6.71168 4.41768 6.72153C4.43426 6.74128 4.46112 6.77209 4.49774 6.8103C4.57139 6.88715 4.68206 6.99141 4.82537 7.09563C5.1139 7.30547 5.51279 7.5 6.00003 7.5C6.48726 7.5 6.88616 7.30547 7.17469 7.09563C7.318 6.99141 7.42867 6.88715 7.50232 6.8103C7.53894 6.77209 7.5658 6.74128 7.58237 6.72153C7.59065 6.71168 7.5963 6.70464 7.59928 6.70088L7.6016 6.69792C7.76769 6.47881 8.07981 6.43484 8.30003 6.6C8.52094 6.76568 8.56571 7.07908 8.40003 7.3L8.00003 7C8.40003 7.3 8.39991 7.30016 8.39979 7.30032L8.39952 7.30067L8.39895 7.30144L8.39758 7.30325L8.39397 7.30795L8.38332 7.32158C8.3747 7.33247 8.36303 7.34692 8.34835 7.3644C8.31903 7.39934 8.27753 7.44666 8.22431 7.5022C8.11827 7.61285 7.96331 7.75859 7.76287 7.90437C7.3639 8.19453 6.76279 8.5 6.00003 8.5C5.23726 8.5 4.63616 8.19453 4.23719 7.90437C4.03675 7.75859 3.88179 7.61285 3.77575 7.5022C3.72253 7.44666 3.68103 7.39934 3.65171 7.3644C3.63703 7.34692 3.62536 7.33247 3.61673 7.32158L3.60609 7.30795L3.60248 7.30325L3.60111 7.30144L3.60053 7.30067L3.60027 7.30032C3.60015 7.30016 3.60003 7.3 4.00003 7L3.60003 7.3C3.43434 7.07908 3.47912 6.76568 3.70003 6.6ZM4 4.5C4 4.22386 4.22386 4 4.5 4H4.505C4.78114 4 5.005 4.22386 5.005 4.5C5.005 4.77614 4.78114 5 4.505 5H4.5C4.22386 5 4 4.77614 4 4.5ZM7.5 4C7.22386 4 7 4.22386 7 4.5C7 4.77614 7.22386 5 7.5 5H7.505C7.78114 5 8.005 4.77614 8.005 4.5C8.005 4.22386 7.78114 4 7.505 4H7.5Z" fill="#BB3D63"/>
</g>
<defs>
<clipPath id="clip0_134_3495">
<rect width="12" height="12" fill="white"/>
</clipPath>
</defs>
</svg>
