<svg width="120" height="120" viewBox="0 0 120 120" fill="none" xmlns="http://www.w3.org/2000/svg">
<g filter="url(#filter0_b_5_533)">
<path d="M83.6841 23.7884C86.3069 28.3311 86.3069 34.4301 86.3069 46.6279C86.3069 58.8257 86.3069 64.9246 83.6841 69.4674C81.9659 72.4434 79.4946 74.9147 76.5185 76.6329C71.9757 79.2557 65.8768 79.2557 53.679 79.2557H40.6279C36.9517 79.2557 33.8295 79.2557 31.1369 79.1839L17.8167 87.0905C16.4437 87.9056 14.7249 86.8225 14.8677 85.2321L15.7601 75.2872C13.6829 73.7146 11.9337 71.7379 10.6228 69.4674C8 64.9246 8 58.8257 8 46.6279C8 34.4301 8 28.3312 10.6228 23.7884C12.341 20.8123 14.8123 18.341 17.7883 16.6228C22.3311 14 28.43 14 40.6278 14L53.679 14C65.8768 14 71.9757 14 76.5185 16.6228C79.4946 18.341 81.9659 20.8123 83.6841 23.7884Z" fill="url(#paint0_linear_5_533)"/>
</g>
<g filter="url(#filter1_b_5_533)">
<path d="M36.7251 43.365C34.1023 47.9078 34.1023 54.0067 34.1023 66.2046C34.1023 78.4024 34.1023 84.5013 36.7251 89.0441C38.4433 92.0201 40.9146 94.4914 43.8906 96.2096C48.4334 98.8324 54.5323 98.8324 66.7301 98.8324H79.7813C83.6193 98.8324 86.8535 98.8324 89.6254 98.7507L102.572 106.61C103.944 107.443 105.681 106.361 105.538 104.762L104.649 94.8638C106.726 93.2911 108.476 91.3145 109.786 89.0441C112.409 84.5013 112.409 78.4024 112.409 66.2046C112.409 54.0068 112.409 47.9078 109.786 43.365C108.068 40.389 105.597 37.9177 102.621 36.1995C98.078 33.5767 91.9791 33.5767 79.7813 33.5767L66.7302 33.5767C54.5324 33.5767 48.4334 33.5767 43.8906 36.1995C40.9146 37.9177 38.4433 40.389 36.7251 43.365Z" fill="#6AE092" fill-opacity="0.6"/>
</g>
<g filter="url(#filter2_b_5_533)">
<rect x="93.5835" y="53.1863" width="6.65263" height="39.9158" rx="3.32632" transform="rotate(90 93.5835 53.1863)" fill="url(#paint1_linear_5_533)" fill-opacity="0.9"/>
<rect x="93.3387" y="53.4311" width="6.16312" height="39.4263" rx="3.08156" transform="rotate(90 93.3387 53.4311)" stroke="url(#paint2_linear_5_533)" stroke-width="0.489516"/>
</g>
<g filter="url(#filter3_b_5_533)">
<rect x="84.2622" y="72.767" width="7.34275" height="30.5948" rx="3.67137" transform="rotate(90 84.2622 72.767)" fill="url(#paint3_linear_5_533)" fill-opacity="0.9"/>
<rect x="84.0174" y="73.0117" width="6.85323" height="30.1053" rx="3.42661" transform="rotate(90 84.0174 73.0117)" stroke="url(#paint4_linear_5_533)" stroke-width="0.489516"/>
</g>
<defs>
<filter id="filter0_b_5_533" x="-5.05114" y="0.948855" width="104.409" height="99.471" filterUnits="userSpaceOnUse" color-interpolation-filters="sRGB">
<feFlood flood-opacity="0" result="BackgroundImageFix"/>
<feGaussianBlur in="BackgroundImageFix" stdDeviation="6.52557"/>
<feComposite in2="SourceAlpha" operator="in" result="effect1_backgroundBlur_5_533"/>
<feBlend mode="normal" in="SourceGraphic" in2="effect1_backgroundBlur_5_533" result="shape"/>
</filter>
<filter id="filter1_b_5_533" x="21.0512" y="20.5255" width="104.409" height="99.4241" filterUnits="userSpaceOnUse" color-interpolation-filters="sRGB">
<feFlood flood-opacity="0" result="BackgroundImageFix"/>
<feGaussianBlur in="BackgroundImageFix" stdDeviation="6.52557"/>
<feComposite in2="SourceAlpha" operator="in" result="effect1_backgroundBlur_5_533"/>
<feBlend mode="normal" in="SourceGraphic" in2="effect1_backgroundBlur_5_533" result="shape"/>
</filter>
<filter id="filter2_b_5_533" x="40.3625" y="39.8811" width="66.5263" height="33.2632" filterUnits="userSpaceOnUse" color-interpolation-filters="sRGB">
<feFlood flood-opacity="0" result="BackgroundImageFix"/>
<feGaussianBlur in="BackgroundImageFix" stdDeviation="6.65263"/>
<feComposite in2="SourceAlpha" operator="in" result="effect1_backgroundBlur_5_533"/>
<feBlend mode="normal" in="SourceGraphic" in2="effect1_backgroundBlur_5_533" result="shape"/>
</filter>
<filter id="filter3_b_5_533" x="40.3622" y="59.4617" width="57.2053" height="33.9533" filterUnits="userSpaceOnUse" color-interpolation-filters="sRGB">
<feFlood flood-opacity="0" result="BackgroundImageFix"/>
<feGaussianBlur in="BackgroundImageFix" stdDeviation="6.65263"/>
<feComposite in2="SourceAlpha" operator="in" result="effect1_backgroundBlur_5_533"/>
<feBlend mode="normal" in="SourceGraphic" in2="effect1_backgroundBlur_5_533" result="shape"/>
</filter>
<linearGradient id="paint0_linear_5_533" x1="-9.35775" y1="14.025" x2="21.9023" y2="126.799" gradientUnits="userSpaceOnUse">
<stop stop-color="#75EDA1"/>
<stop offset="1" stop-color="#349256"/>
</linearGradient>
<linearGradient id="paint1_linear_5_533" x1="105.223" y1="48.4751" x2="96.6569" y2="86.4126" gradientUnits="userSpaceOnUse">
<stop stop-color="white" stop-opacity="0"/>
<stop offset="0.979167" stop-color="white"/>
</linearGradient>
<linearGradient id="paint2_linear_5_533" x1="96.9098" y1="53.1863" x2="96.9098" y2="93.1021" gradientUnits="userSpaceOnUse">
<stop stop-color="white" stop-opacity="0"/>
<stop offset="1" stop-color="white"/>
</linearGradient>
<linearGradient id="paint3_linear_5_533" x1="93.9917" y1="72.4389" x2="90.6734" y2="97.2861" gradientUnits="userSpaceOnUse">
<stop stop-color="white" stop-opacity="0"/>
<stop offset="0.979167" stop-color="white"/>
</linearGradient>
<linearGradient id="paint4_linear_5_533" x1="87.9336" y1="72.767" x2="87.9336" y2="103.362" gradientUnits="userSpaceOnUse">
<stop stop-color="white" stop-opacity="0"/>
<stop offset="1" stop-color="white"/>
</linearGradient>
</defs>
</svg>
