<svg width="12" height="12" viewBox="0 0 12 12" fill="none" xmlns="http://www.w3.org/2000/svg">
<path fill-rule="evenodd" clip-rule="evenodd" d="M6 1.5C3.51472 1.5 1.5 3.51472 1.5 6C1.5 8.48528 3.51472 10.5 6 10.5C8.48528 10.5 10.5 8.48528 10.5 6C10.5 3.51472 8.48528 1.5 6 1.5ZM0.5 6C0.5 2.96243 2.96243 0.5 6 0.5C9.03757 0.5 11.5 2.96243 11.5 6C11.5 9.03757 9.03757 11.5 6 11.5C2.96243 11.5 0.5 9.03757 0.5 6Z" fill="#BB3D63"/>
<path fill-rule="evenodd" clip-rule="evenodd" d="M4.39843 8.30208C4.39836 8.30217 4.39815 8.30245 4.39843 8.30208V8.30208ZM7.60135 8.3018C7.76744 8.52091 8.07978 8.56516 8.3 8.4C8.52091 8.23431 8.56568 7.92091 8.4 7.7L8.00745 7.99441C8.39999 7.7 8.40012 7.70016 8.4 7.7L8.39891 7.69856L8.39754 7.69675L8.39394 7.69204L8.38329 7.67842C8.37467 7.66753 8.36299 7.65308 8.34832 7.6356C8.31899 7.60066 8.2775 7.55334 8.22427 7.4978C8.11823 7.38715 7.96328 7.24141 7.76283 7.09563C7.36386 6.80547 6.76276 6.5 6 6.5C5.23723 6.5 4.63613 6.80547 4.23716 7.09563C4.03671 7.24141 3.88176 7.38715 3.77572 7.4978C3.7225 7.55334 3.681 7.60066 3.65168 7.6356C3.637 7.65308 3.62532 7.66753 3.6167 7.67842L3.60605 7.69204L3.60245 7.69675L3.60108 7.69856L3.60024 7.69968C3.60012 7.69984 3.6 7.7 4 8L3.60024 7.69968C3.43455 7.92059 3.47908 8.23431 3.7 8.4C3.92021 8.56516 4.23234 8.52119 4.39843 8.30208L4.40075 8.29912C4.40372 8.29536 4.40938 8.28832 4.41765 8.27847C4.43423 8.25872 4.46109 8.22791 4.49771 8.1897C4.57136 8.11285 4.68203 8.00859 4.82533 7.90437C5.11386 7.69453 5.51276 7.5 6 7.5C6.48723 7.5 6.88613 7.69453 7.17466 7.90437C7.31796 8.00859 7.42863 8.11285 7.50228 8.1897C7.5389 8.22791 7.56576 8.25872 7.58234 8.27847C7.59061 8.28832 7.59627 8.29536 7.59925 8.29912L7.60135 8.3018Z" fill="#BB3D63"/>
<path fill-rule="evenodd" clip-rule="evenodd" d="M4 4.5C4 4.22386 4.22386 4 4.5 4H4.505C4.78114 4 5.005 4.22386 5.005 4.5C5.005 4.77614 4.78114 5 4.505 5H4.5C4.22386 5 4 4.77614 4 4.5Z" fill="#BB3D63"/>
<path fill-rule="evenodd" clip-rule="evenodd" d="M7 4.5C7 4.22386 7.22386 4 7.5 4H7.505C7.78114 4 8.005 4.22386 8.005 4.5C8.005 4.77614 7.78114 5 7.505 5H7.5C7.22386 5 7 4.77614 7 4.5Z" fill="#BB3D63"/>
</svg>
